<?xml version="1.0" standalone="no"?>
<!DOCTYPE svg PUBLIC "-//W3C//DTD SVG 20010904//EN"
 "http://www.w3.org/TR/2001/REC-SVG-20010904/DTD/svg10.dtd">
<svg version="1.0" xmlns="http://www.w3.org/2000/svg"
 width="1280.000000pt" height="1132.000000pt" viewBox="0 0 1280.000000 1132.000000"
 preserveAspectRatio="xMidYMid meet">
<metadata>
Created by potrace 1.15, written by Peter Selinger 2001-2017
</metadata>
<g transform="translate(0.000000,1132.000000) scale(0.100000,-0.100000)"
fill="#000000" stroke="none">
<path d="M11658 11263 c-31 -32 -95 -89 -142 -128 -73 -60 -102 -95 -80 -95
12 0 199 163 244 212 l45 49 24 -25 c21 -22 31 -24 87 -23 79 2 80 22 1 22
-44 0 -60 5 -79 23 -13 12 -29 22 -34 22 -5 0 -35 -26 -66 -57z"/>
<path d="M11010 11023 c0 -5 -4 -35 -10 -67 -23 -139 80 -392 220 -540 26 -28
50 -60 52 -71 3 -17 -5 -21 -57 -28 -33 -5 -106 -20 -162 -33 l-102 -25 -76
26 c-92 30 -143 32 -178 5 -33 -26 -49 -19 -92 42 -39 54 -92 83 -133 73 -13
-3 -52 -35 -86 -70 -72 -75 -92 -81 -236 -71 -125 9 -284 -17 -464 -74 -140
-44 -162 -47 -193 -25 -18 13 -33 13 -97 3 -59 -9 -86 -9 -123 1 -135 35 -140
36 -181 17 l-39 -18 -164 75 c-276 126 -330 139 -707 177 -110 11 -235 27
-278 35 -44 8 -139 24 -212 35 -77 11 -149 28 -172 40 -38 19 -40 23 -40 66 0
36 -5 50 -26 69 -33 30 -74 32 -99 5 -29 -32 -37 -24 -30 34 12 91 -8 114 -82
94 -41 -11 -93 -58 -93 -84 0 -10 -8 -26 -17 -36 -26 -29 -28 -112 -5 -203 52
-205 80 -302 94 -330 9 -16 19 -68 23 -115 4 -47 13 -100 21 -119 20 -47 19
-49 -28 -41 -76 13 -81 17 -74 67 4 34 2 43 -9 43 -17 0 -28 -36 -23 -76 4
-41 52 -65 128 -66 33 0 63 2 66 4 3 3 -5 24 -16 47 -12 22 -26 75 -32 118 -9
70 -9 78 8 90 16 12 20 10 32 -13 8 -15 25 -59 38 -97 29 -86 46 -113 76 -123
13 -3 38 -20 57 -36 29 -26 40 -29 73 -25 22 3 63 21 91 39 51 34 247 116 297
125 14 2 66 5 116 6 97 3 136 18 149 57 6 19 14 21 83 19 101 -2 179 -22 277
-69 101 -49 244 -175 222 -196 -3 -3 -40 4 -83 16 -83 21 -112 24 -164 14 -63
-13 -125 -101 -149 -211 -8 -42 -8 -66 5 -123 31 -136 83 -172 254 -174 83 -1
102 2 152 26 31 14 64 37 73 51 28 43 55 126 62 187 6 57 5 58 -38 106 -44 47
-44 47 -11 28 41 -23 175 -161 195 -201 8 -15 24 -63 36 -106 12 -43 37 -110
57 -150 35 -68 36 -75 31 -147 -8 -96 12 -140 91 -206 74 -62 102 -94 102
-121 0 -12 -14 -79 -31 -149 -36 -148 -36 -224 -2 -291 13 -25 18 -45 12 -48
-5 -4 -15 -21 -23 -38 -8 -18 -31 -49 -53 -70 -35 -34 -49 -39 -141 -57 -124
-24 -253 -26 -313 -5 -83 29 -136 101 -164 217 -19 82 -19 152 1 194 24 49
189 202 248 230 106 49 217 22 317 -78 48 -48 79 -58 79 -25 0 24 -107 117
-167 145 -46 21 -73 27 -128 27 -89 0 -135 -22 -244 -116 -157 -136 -187 -203
-157 -355 28 -145 79 -225 174 -271 53 -26 66 -28 172 -27 98 0 242 20 295 41
7 2 18 -10 25 -27 22 -53 66 -106 104 -124 43 -20 44 -32 12 -114 -40 -102
-85 -160 -170 -219 -29 -20 -30 -20 -120 -1 -142 29 -201 26 -347 -20 -135
-42 -225 -59 -494 -92 -210 -26 -235 -31 -249 -52 -19 -31 5 -42 64 -29 29 6
144 22 256 36 235 29 312 44 443 86 51 16 113 32 136 36 49 6 228 -21 282 -43
19 -9 77 -20 127 -25 75 -9 95 -15 111 -33 11 -13 39 -38 63 -55 51 -39 94
-101 110 -158 7 -23 28 -60 47 -82 18 -23 37 -51 41 -64 4 -12 17 -35 30 -50
13 -16 24 -34 24 -40 0 -7 9 -29 20 -49 16 -31 18 -42 9 -62 -24 -52 17 -109
62 -86 12 7 18 18 15 26 -9 23 33 17 97 -13 l58 -28 -5 -73 c-8 -130 -58 -194
-138 -177 -74 16 -102 41 -223 203 -57 76 -94 116 -130 137 -64 39 -146 121
-168 167 l-18 38 46 43 c54 52 58 72 14 63 -29 -6 -30 -5 -24 23 11 52 -15 49
-65 -7 -26 -29 -54 -52 -63 -52 -14 0 -40 16 -194 122 -29 20 -78 44 -108 53
-30 8 -55 18 -55 20 0 3 6 14 12 25 10 16 10 22 0 32 -11 11 -17 9 -33 -11
-39 -48 -19 -82 61 -105 35 -10 89 -40 151 -84 53 -38 112 -74 130 -81 60 -23
81 -35 86 -51 13 -44 36 -83 80 -136 l50 -59 -13 -90 c-7 -50 -20 -117 -29
-150 -19 -68 -21 -148 -5 -189 29 -77 -6 -143 -104 -194 -41 -21 -65 -26 -124
-27 -70 0 -75 2 -97 29 -47 58 -39 132 19 186 l27 25 19 -25 c11 -14 28 -49
38 -79 21 -64 44 -84 68 -60 13 14 14 23 4 60 -12 44 -44 113 -62 137 -12 13
-11 187 1 242 6 31 11 36 49 44 26 5 42 14 42 23 0 12 -11 13 -53 8 l-53 -7
-72 66 c-84 77 -122 98 -182 103 -211 16 -210 16 -216 -1 -10 -25 -1 -28 70
-30 74 -1 100 -16 149 -83 20 -28 31 -56 32 -80 1 -54 29 -52 33 3 2 33 -4 50
-33 92 -35 51 -35 52 -12 52 27 0 66 -27 140 -97 l53 -50 -6 -127 c-4 -69 -11
-130 -16 -134 -5 -5 -26 -20 -47 -36 -79 -58 -100 -171 -46 -250 32 -48 74
-66 153 -66 121 0 239 68 281 160 18 40 18 45 2 108 -22 86 -22 91 8 214 14
57 25 121 25 144 0 22 3 44 6 47 14 14 71 -42 149 -147 103 -140 148 -180 221
-202 126 -36 204 39 221 214 3 34 9 62 12 62 14 -1 50 -38 67 -70 17 -32 19
-61 19 -300 0 -317 -4 -304 134 -399 93 -63 121 -73 121 -43 0 11 -26 33 -68
60 -102 62 -139 102 -148 158 -4 26 -2 124 4 218 9 148 7 228 -9 296 -10 39
144 -20 217 -83 50 -43 74 -91 74 -144 0 -26 10 -54 28 -84 40 -63 139 -138
162 -124 18 11 11 32 -14 43 -36 16 -105 81 -122 113 -8 16 -14 45 -14 65 0
21 -10 57 -21 82 -40 82 -197 181 -295 185 -30 1 -53 8 -61 17 -6 9 -35 26
-65 39 -29 13 -80 36 -113 52 -33 16 -67 29 -75 29 -21 1 -85 85 -85 112 0 29
99 105 142 109 26 3 40 -4 70 -33 54 -52 274 -178 395 -226 98 -39 353 -112
391 -112 10 0 17 8 17 19 0 15 -22 24 -127 51 -151 38 -287 87 -398 143 l-80
40 125 33 c69 19 148 37 175 40 l50 6 158 -106 c87 -58 174 -119 193 -136 35
-30 54 -32 54 -5 0 7 -15 26 -34 43 -33 29 -299 208 -343 231 -36 18 -80 13
-250 -30 -190 -47 -212 -45 -289 25 -46 41 -48 45 -36 70 16 36 15 92 -3 152
-17 56 -16 58 64 72 31 6 81 16 111 22 84 18 118 19 360 20 250 0 317 11 346
55 17 26 11 47 -25 79 -11 10 -35 55 -52 100 -17 44 -39 97 -49 116 -17 34
-104 115 -145 137 -29 15 -220 65 -434 113 -102 23 -214 51 -248 61 l-64 20 3
41 3 41 110 31 c154 44 186 64 199 128 8 34 63 107 103 134 18 12 55 24 86 27
64 6 120 33 161 76 17 17 34 31 38 31 5 0 26 11 46 25 42 29 67 31 110 10 27
-14 34 -14 74 2 52 20 108 54 128 78 8 9 26 45 40 78 31 76 49 82 97 32 l36
-38 90 7 c49 4 102 13 118 21 15 8 55 48 88 89 69 84 98 104 193 136 84 27
104 50 113 133 12 99 8 148 -20 214 -28 71 -32 103 -10 103 35 0 48 -47 54
-195 7 -161 13 -175 95 -217 76 -39 188 -18 202 38 4 13 20 32 36 40 33 17 33
17 42 -12 5 -18 -4 -27 -55 -59 -68 -42 -119 -104 -119 -145 0 -15 9 -47 20
-71 11 -24 20 -49 20 -56 0 -6 -20 -35 -43 -65 -56 -68 -71 -114 -64 -192 13
-131 53 -193 138 -216 157 -43 350 72 336 200 -2 25 -7 52 -11 60 -5 11 3 19
26 28 55 20 156 103 210 172 78 101 198 359 198 428 0 48 -121 399 -158 460
-46 75 -119 198 -160 269 -79 141 -240 324 -311 355 -49 22 -91 19 -153 -13
-25 -13 -38 -26 -38 -40 0 -29 23 -33 61 -10 43 26 93 27 133 2 67 -42 209
-226 303 -395 31 -55 75 -128 98 -161 43 -64 58 -100 129 -322 l46 -143 -20
-62 c-35 -106 -126 -279 -183 -349 -59 -71 -136 -128 -207 -152 -25 -9 -80
-32 -123 -52 -70 -32 -159 -63 -228 -79 -23 -5 -27 -2 -32 20 -8 46 13 105 59
165 53 67 58 100 25 174 l-21 47 21 29 c20 29 99 89 117 89 5 0 26 -17 47 -37
l37 -38 -7 39 c-3 21 -3 36 2 34 4 -2 26 -12 47 -22 72 -33 145 2 133 63 -5
26 -2 33 22 47 24 14 51 51 51 69 0 3 -16 5 -36 5 -28 0 -35 3 -30 15 9 26
-21 29 -57 6 -19 -12 -37 -21 -41 -21 -11 0 -6 35 9 54 8 11 15 28 15 38 0 28
-29 10 -51 -33 -23 -46 -35 -49 -51 -11 l-12 27 -5 -40 -6 -40 -52 3 c-33 2
-64 -3 -83 -13 -28 -14 -30 -14 -30 3 0 43 35 144 101 289 38 85 69 163 67
172 -2 9 -13 16 -27 16 -19 0 -30 -16 -73 -110 -76 -165 -116 -274 -124 -332
-7 -55 -25 -73 -51 -51 -12 10 -17 9 -24 -5 -13 -23 -94 -24 -103 -1 -3 9 -6
66 -6 127 0 125 -9 169 -42 204 -44 47 -138 19 -138 -42 0 -13 14 -59 30 -100
28 -70 30 -82 24 -160 -4 -47 -12 -89 -18 -94 -6 -5 -49 -23 -94 -41 -88 -34
-121 -60 -213 -170 l-46 -55 -86 -3 c-78 -4 -86 -2 -96 17 -10 19 -9 21 12 21
45 0 73 34 86 102 17 88 30 128 57 168 28 41 29 56 8 110 -20 49 -34 51 -34 5
0 -26 -10 -47 -45 -87 -25 -29 -55 -68 -66 -86 -18 -27 -24 -30 -36 -20 -9 7
-13 24 -11 45 3 23 0 32 -8 29 -7 -3 -20 24 -34 71 l-22 75 28 29 c23 24 26
32 14 39 -18 11 -30 4 -30 -21 0 -45 -18 -12 -48 89 -33 110 -72 268 -72 289
0 7 7 10 15 7 23 -9 45 15 45 48 0 25 -4 29 -22 26 -19 -3 -25 4 -36 42 -21
73 -35 94 -72 106 -29 10 -36 18 -44 50 -4 22 -21 56 -37 76 -16 20 -29 48
-29 62 0 19 -5 26 -18 26 -28 0 -34 11 -15 32 21 24 35 23 123 -7 85 -29 130
-31 191 -10 24 9 105 25 179 36 74 11 167 25 206 32 84 13 113 4 165 -49 40
-41 99 -74 131 -74 13 0 55 -7 94 -16 39 -10 79 -14 88 -11 33 13 3 36 -70 52
-40 9 -76 20 -79 26 -4 5 23 9 64 9 83 0 121 12 121 39 0 11 -6 21 -12 24 -7
2 -82 2 -165 -1 -84 -2 -153 -1 -153 3 0 4 22 31 48 61 76 85 165 254 134 254
-5 0 -15 -15 -21 -32 -18 -51 -85 -158 -134 -213 -36 -40 -47 -47 -59 -38 -36
30 -152 34 -239 7 -12 -3 -18 4 -22 25 -4 18 -33 60 -70 100 -92 100 -188 295
-203 414 -3 23 -1 62 4 87 5 25 7 51 4 58 -4 13 -42 17 -42 5z m-3717 -307
c-2 -58 -11 -84 -21 -57 -9 26 -42 51 -67 51 -33 0 -32 14 3 38 69 49 88 42
85 -32z m135 -78 c15 -15 16 -58 0 -58 -19 0 -48 31 -48 52 0 21 29 25 48 6z
m-122 -43 c11 -3 38 -18 59 -35 21 -16 42 -30 47 -30 5 0 24 -11 42 -25 48
-37 106 -54 256 -75 74 -11 170 -27 213 -35 43 -8 153 -22 245 -30 311 -29
435 -56 616 -137 50 -22 128 -57 174 -77 70 -30 79 -37 62 -45 -11 -5 -20 -15
-20 -23 0 -17 15 -17 30 2 17 21 25 19 63 -15 25 -22 45 -30 72 -30 30 0 45
-8 77 -40 34 -34 40 -45 36 -72 -4 -25 0 -36 22 -54 15 -13 48 -59 73 -103 26
-45 70 -112 97 -149 35 -48 50 -78 50 -100 0 -18 4 -32 9 -32 13 0 48 -77 61
-134 6 -26 21 -62 34 -80 48 -64 55 -118 66 -481 9 -276 15 -340 45 -457 6
-22 4 -28 -9 -28 -21 0 -29 18 -61 140 -32 123 -42 147 -58 131 -8 -8 -3 -42
17 -123 16 -62 33 -122 39 -132 12 -25 37 -129 31 -135 -5 -6 -156 70 -217
109 -86 54 -97 136 -47 330 45 174 46 170 -59 270 -48 47 -93 95 -99 106 -7
14 -9 51 -5 101 5 76 5 80 -32 153 -21 41 -48 111 -60 156 -13 45 -29 93 -37
108 -15 30 -246 286 -257 286 -4 0 -48 40 -97 88 -99 97 -200 156 -329 190
-39 11 -91 29 -117 41 -26 12 -100 33 -165 47 -65 14 -136 34 -159 45 -22 10
-49 19 -61 19 -11 0 -28 10 -39 21 -23 26 -120 70 -137 63 -13 -4 -55 12 -107
41 -14 8 -40 15 -59 15 -23 0 -44 9 -68 30 -38 33 -41 34 -78 20 -22 -8 -32
-6 -59 15 -36 28 -56 31 -74 13 -18 -18 -14 -49 13 -93 13 -22 25 -55 25 -72
0 -37 15 -44 25 -13 4 13 -5 45 -24 86 -27 57 -28 66 -14 71 24 9 76 -55 101
-125 39 -110 96 -242 105 -242 11 0 3 26 -50 149 -55 130 -61 156 -37 165 11
4 25 -1 38 -13 27 -26 69 -41 111 -41 32 0 34 -2 44 -51 13 -58 25 -85 54
-116 27 -31 75 -31 86 -1 7 21 5 39 -14 112 -5 19 -4 27 2 23 6 -4 18 -33 27
-65 9 -32 34 -88 56 -125 22 -36 40 -72 40 -80 0 -9 -34 -29 -86 -51 -136 -57
-130 -57 -158 5 -13 30 -31 77 -40 104 -19 58 -32 82 -41 73 -7 -6 61 -192 82
-224 13 -20 11 -24 -19 -49 -43 -36 -95 -58 -123 -51 -12 3 -31 18 -41 33 -17
26 -81 181 -107 261 -10 30 -27 44 -27 22 0 -8 32 -96 91 -247 5 -14 5 -23 -1
-23 -20 0 -50 46 -71 109 -12 36 -32 87 -45 113 -13 26 -29 71 -35 100 -6 29
-19 82 -29 118 -38 131 -60 227 -60 259 0 34 2 35 96 16z m-83 -247 c19 -44
50 -186 44 -201 -6 -17 -31 46 -51 129 -10 38 -20 77 -22 87 -9 31 15 18 29
-15z m537 -102 c5 -16 10 -38 10 -49 0 -17 -2 -18 -17 -6 -18 15 -43 70 -43
94 0 25 38 -4 50 -39z m171 -110 c29 -49 38 -71 30 -79 -14 -14 -28 4 -76 94
-39 75 -49 122 -15 79 11 -14 38 -56 61 -94z m70 48 c15 -7 29 -22 32 -34 4
-17 2 -19 -19 -14 -28 7 -34 -16 -9 -36 18 -15 19 -30 3 -30 -12 0 -88 116
-88 133 0 9 47 -2 81 -19z m2471 -103 c17 -19 30 -56 41 -111 9 -46 15 -85 13
-88 -9 -9 -96 189 -96 218 0 18 18 10 42 -19z m-2299 -52 c-16 -16 -163 -26
-163 -11 0 15 17 19 100 21 58 1 72 -1 63 -10z m560 -271 c63 -14 97 -27 97
-35 0 -7 19 -34 41 -58 41 -45 42 -46 36 -105 -3 -32 -16 -84 -30 -114 -37
-81 -79 -101 -217 -101 -141 1 -177 17 -204 95 -40 115 -15 244 61 310 42 37
81 39 216 8z m2267 -706 c0 -44 0 -45 -20 -27 -15 14 -20 31 -20 69 l1 51 19
-24 c14 -15 20 -38 20 -69z m-1216 -84 c2 -18 10 -123 16 -233 6 -110 19 -251
29 -313 9 -62 15 -115 12 -117 -4 -2 -16 5 -27 14 -42 34 -57 132 -63 414 -4
142 -4 261 -2 263 14 13 31 0 35 -28z m691 -279 c33 -7 62 -14 64 -16 13 -10
-100 -72 -132 -73 -14 0 -17 7 -16 33 1 17 -1 43 -5 55 -7 20 -5 23 11 19 10
-3 45 -11 78 -18z m1835 -109 c0 -50 -43 -102 -105 -126 -63 -24 -156 -16
-190 16 -32 30 -32 50 -1 50 28 0 184 53 236 81 52 27 60 24 60 -21z m-2557
-321 c-3 -12 0 -24 6 -28 15 -10 4 -61 -13 -61 -17 0 -37 93 -22 102 21 14 34
8 29 -13z m-234 -39 c47 -27 105 -56 127 -64 23 -8 50 -19 60 -24 48 -25 132
-52 160 -52 18 0 51 -7 75 -16 24 -8 152 -40 284 -70 301 -68 300 -68 315
-104 14 -34 74 -91 119 -115 17 -8 31 -22 31 -30 0 -8 16 -40 35 -72 39 -65
42 -79 20 -110 -11 -16 -12 -24 -3 -29 7 -4 18 1 26 14 17 25 32 29 32 8 0 -8
-12 -24 -27 -36 -23 -18 -38 -20 -112 -18 l-85 3 -8 38 c-4 20 -17 55 -28 77
-24 46 -24 50 -7 50 24 0 50 -39 53 -77 2 -21 3 -41 3 -45 1 -5 8 -8 16 -8 40
0 24 113 -21 149 -26 20 -25 41 1 41 21 0 72 -68 83 -112 7 -26 7 -50 1 -65
-12 -32 -12 -33 6 -33 9 0 20 12 26 27 16 43 -6 115 -53 168 -46 52 -76 58
-106 20 -19 -24 -52 -34 -52 -16 0 5 -18 27 -40 50 -45 46 -128 91 -216 117
-115 33 -349 82 -358 74 -14 -14 23 -26 177 -59 215 -47 299 -79 365 -140 32
-30 103 -165 117 -223 6 -25 4 -28 -17 -28 -18 0 -27 8 -37 35 -15 43 -62 80
-127 101 -27 9 -79 38 -116 65 -79 57 -139 89 -167 89 -10 0 -52 16 -92 35
-41 19 -99 39 -129 44 -30 5 -80 19 -110 30 -30 11 -66 21 -80 21 -14 0 -34 7
-44 15 -27 20 -36 19 -36 -4 0 -29 -17 -34 -24 -8 -3 12 -6 27 -6 33 0 11 206
34 308 34 47 0 63 3 59 13 -4 14 -106 16 -267 3 l-105 -8 -28 48 c-15 27 -39
68 -53 91 -41 67 -10 62 62 -11 37 -38 73 -66 85 -66 11 0 17 5 14 10 -3 6
-12 10 -18 10 -7 0 -39 27 -72 60 -44 45 -67 60 -85 59 -43 -2 -50 0 -50 19 0
16 17 42 28 42 3 0 43 -22 91 -50z m335 -26 c18 -47 -3 -67 -42 -43 -27 17
-17 59 13 59 13 0 26 -7 29 -16z m-412 -101 c89 -152 96 -175 65 -206 l-22
-22 -5 40 c-7 49 -16 65 -39 65 -31 0 -111 102 -111 141 0 16 40 59 55 59 7 0
33 -35 57 -77z m1192 -206 c23 -13 40 -30 41 -42 2 -11 6 -29 10 -39 7 -15 -1
-13 -38 13 -94 65 -105 121 -13 68z m-884 -45 c19 -9 71 -32 115 -52 44 -21
90 -41 102 -46 12 -5 32 -25 45 -44 13 -19 43 -50 68 -68 53 -40 58 -51 59
-113 1 -40 -2 -47 -21 -53 -13 -3 -24 -1 -26 4 -2 5 -21 37 -43 71 -68 104
-178 199 -331 283 -38 21 -68 40 -68 43 0 7 61 -8 100 -25z m223 -35 c55 -27
68 -36 54 -42 -18 -8 -161 45 -194 71 -35 29 62 8 140 -29z m-158 -70 c85 -57
171 -142 217 -211 21 -33 38 -63 38 -67 0 -10 -60 -26 -123 -32 -44 -4 -47 -3
-41 15 4 13 2 18 -4 14 -6 -3 -17 14 -26 42 -18 52 -61 109 -145 190 -30 28
-52 55 -48 59 10 9 109 -61 171 -122 29 -28 62 -73 74 -98 24 -51 49 -64 38
-20 -16 60 -109 163 -211 233 -27 18 -52 37 -55 40 -3 4 -15 12 -27 19 -13 6
-23 16 -23 22 0 12 89 -33 165 -84z m-260 18 c1 -48 -5 -54 -29 -29 -19 19
-21 60 -3 67 27 11 32 5 32 -38z m551 -5 c57 -22 167 -115 206 -174 21 -33 38
-63 38 -68 0 -4 -11 -8 -25 -8 -17 0 -29 9 -39 28 -17 32 -54 67 -115 108 -56
36 -121 97 -121 112 0 15 20 15 56 2z m-338 -136 c56 -57 98 -134 88 -160 -8
-22 -49 -13 -56 12 -10 40 -82 152 -106 164 -18 10 -21 16 -13 27 18 21 30 16
87 -43z m-256 6 c25 -34 15 -60 -23 -60 -26 0 -28 2 -20 19 12 21 5 32 -15 24
-15 -6 -18 6 -8 32 9 23 43 15 66 -15z m920 -47 c36 -34 41 -60 14 -67 -35 -9
-56 -7 -56 7 0 7 -13 34 -30 60 -16 26 -30 50 -30 52 0 11 77 -28 102 -52z
m-710 -26 c21 -36 24 -48 14 -56 -24 -20 -92 80 -69 103 13 12 27 0 55 -47z
m524 -29 c7 -23 -9 -38 -43 -38 -15 0 -23 6 -23 18 0 9 -3 35 -7 56 l-6 39 36
-27 c20 -15 39 -37 43 -48z m-703 -2 c8 -9 24 -12 36 -9 27 7 29 -17 3 -40
-17 -15 -20 -15 -43 0 -31 21 -50 44 -43 54 8 14 31 11 47 -5z m435 -170 c27
-60 27 -138 -1 -149 -7 -3 -37 15 -66 39 -66 54 -93 56 -155 10 -51 -40 -59
-37 -81 38 -17 55 -23 52 143 65 62 5 116 12 119 15 13 13 30 5 41 -18z m-107
-105 l23 -18 -36 -32 c-20 -17 -39 -42 -42 -55 -11 -43 -32 -38 -58 15 -28 54
-25 61 37 93 39 20 48 20 76 -3z m55 -56 c4 -13 -73 -68 -88 -63 -16 6 52 79
70 76 8 -2 17 -7 18 -13z"/>
<path d="M7651 10164 c-2 -23 30 -112 44 -124 27 -22 24 -7 -10 65 -18 39 -34
65 -34 59z"/>
<path d="M7470 10040 c0 -5 8 -10 19 -10 26 0 36 -16 56 -82 16 -55 35 -85 35
-55 0 21 -38 128 -51 143 -13 16 -59 19 -59 4z"/>
<path d="M9072 9872 c-10 -7 -10 -15 -2 -36 15 -40 12 -74 -7 -85 -14 -8 -15
-12 -4 -25 7 -9 18 -16 23 -16 6 0 6 6 -1 14 -16 19 5 32 24 16 18 -15 19 -6
3 20 -11 17 -8 24 17 51 l30 32 -27 -5 c-23 -4 -27 -2 -25 15 2 22 -12 31 -31
19z"/>
<path d="M9378 9123 c-26 -3 -38 -9 -38 -20 0 -10 5 -13 18 -8 33 13 37 10 36
-27 -1 -37 8 -46 32 -30 13 8 11 86 -2 87 -5 1 -26 0 -46 -2z"/>
<path d="M8630 9619 c-73 -30 -94 -99 -42 -139 22 -18 35 -21 76 -16 49 5 86
28 86 52 0 7 -12 22 -27 33 l-28 20 27 1 c35 0 42 13 19 34 -23 21 -78 29
-111 15z"/>
<path d="M12265 10839 c-71 -16 -166 -30 -209 -31 -62 -2 -81 -7 -90 -20 -32
-52 95 -56 312 -9 87 19 172 31 217 31 77 0 91 8 73 43 -14 27 -146 21 -303
-14z"/>
<path d="M10690 10790 c0 -6 8 -34 17 -63 16 -48 16 -60 0 -191 -15 -124 -16
-142 -3 -155 19 -19 20 -16 35 114 20 180 8 295 -32 303 -10 2 -17 -2 -17 -8z"/>
<path d="M5705 10219 c-10 -15 -6 -17 79 -39 42 -10 97 -28 123 -40 54 -24 63
-25 63 -5 0 19 -61 50 -151 75 -83 23 -105 25 -114 9z"/>
<path d="M6045 10090 c-3 -5 20 -29 51 -52 225 -170 249 -199 266 -315 16
-117 103 -373 126 -373 19 0 10 39 -40 169 -22 60 -43 136 -49 182 -12 100
-29 140 -87 201 -41 44 -240 198 -255 198 -3 0 -9 -4 -12 -10z"/>
<path d="M11350 10066 c0 -38 21 -86 42 -97 29 -15 35 -3 9 18 -14 12 -24 34
-28 61 -6 44 -23 58 -23 18z"/>
<path d="M10967 9974 c-3 -4 8 -27 26 -51 18 -25 50 -92 72 -151 38 -99 65
-138 65 -95 0 27 -46 156 -75 212 -39 74 -70 103 -88 85z"/>
<path d="M11335 9904 c-12 -18 -23 -24 -37 -21 -34 9 -4 -15 37 -29 l35 -12 0
39 c0 48 -13 56 -35 23z"/>
<path d="M5231 9911 c-10 -7 -7 -18 14 -56 22 -36 30 -66 36 -136 10 -105 29
-153 92 -231 26 -31 47 -66 47 -78 0 -12 -11 -38 -25 -58 -30 -43 -32 -68 -7
-81 10 -5 18 -20 19 -32 3 -37 35 -72 93 -101 39 -20 121 -41 278 -72 217 -43
225 -44 271 -29 l48 15 114 -45 c141 -55 245 -107 288 -143 67 -56 121 -217
92 -272 -22 -41 -58 -27 -255 92 -113 69 -183 96 -247 96 -71 0 -59 -34 16
-44 61 -8 141 -45 259 -119 49 -31 108 -64 132 -73 l42 -16 1 -62 c0 -48 11
-93 46 -192 33 -92 48 -150 52 -204 l5 -75 -61 -118 c-51 -100 -61 -127 -61
-170 0 -48 3 -54 48 -96 l49 -46 -97 -200 c-71 -147 -109 -214 -144 -252 -26
-29 -52 -53 -58 -53 -5 0 -7 4 -4 9 3 4 19 62 37 127 25 96 32 148 38 265 6
147 15 179 48 179 10 0 11 5 5 18 -5 9 -12 55 -16 102 -8 111 -35 194 -64 198
-27 4 -29 -24 -6 -91 10 -29 12 -52 7 -62 -7 -13 -15 -6 -41 34 -18 27 -56 69
-85 92 -51 41 -343 189 -372 189 -8 0 -15 -7 -15 -16 0 -10 48 -39 143 -84
240 -115 317 -187 324 -310 2 -36 11 -94 20 -130 11 -47 14 -89 9 -152 -7
-101 -78 -393 -103 -420 -10 -11 -19 -44 -22 -85 -8 -90 -21 -97 -103 -55 -68
35 -104 40 -133 19 -25 -19 -11 -37 29 -37 18 0 58 -13 89 -30 68 -36 97 -38
134 -6 24 21 29 33 33 92 5 65 7 70 40 91 19 13 59 47 89 76 46 45 68 81 156
263 57 117 107 214 112 217 5 3 27 -3 50 -13 45 -20 77 -58 64 -74 -19 -23
-41 -127 -50 -240 -11 -122 -16 -141 -31 -116 -10 16 -9 17 -39 -32 -18 -30
-19 -37 -7 -32 20 8 20 -14 1 -40 -8 -11 -15 -27 -15 -37 0 -9 -7 -23 -17 -30
-9 -8 -33 -37 -55 -66 -104 -141 -143 -245 -153 -409 -4 -62 -11 -117 -15
-123 -3 -7 -37 -16 -73 -22 l-67 -11 -70 64 c-60 54 -68 64 -54 73 107 64 159
201 99 260 -22 23 -31 25 -121 25 -69 0 -106 5 -132 17 -62 28 -162 140 -266
296 -70 105 -103 147 -117 147 -11 0 -22 -6 -25 -14 -8 -22 190 -310 266 -387
95 -97 132 -114 253 -114 107 0 122 -8 111 -55 -8 -36 -43 -89 -70 -106 -21
-14 -27 -14 -70 5 -57 25 -53 25 -47 1 4 -15 0 -20 -14 -20 -27 0 -231 115
-268 151 -33 31 -65 38 -65 15 0 -24 82 -88 171 -135 46 -24 111 -62 144 -84
33 -22 67 -41 76 -42 9 -1 47 -29 85 -63 60 -54 67 -64 57 -80 -7 -9 -22 -35
-34 -57 -12 -22 -31 -52 -42 -67 -27 -37 -19 -90 32 -199 30 -64 41 -100 41
-135 0 -116 55 -323 106 -395 26 -39 27 -40 8 -60 -10 -12 -38 -32 -62 -46
-35 -21 -57 -26 -125 -27 -115 -2 -140 -18 -194 -125 -52 -102 -58 -110 -145
-162 -144 -85 -186 -161 -117 -210 24 -17 40 -20 76 -16 83 9 233 98 233 139
0 22 -33 19 -58 -5 -73 -69 -223 -109 -230 -61 -4 26 43 68 135 122 84 49 94
60 138 151 54 112 67 121 167 121 98 0 144 18 206 77 49 47 52 66 15 119 -52
76 -103 253 -103 358 0 47 5 64 25 87 36 44 42 92 17 150 -11 27 -16 49 -11
49 5 0 9 11 9 25 0 20 5 25 24 25 13 0 29 -7 37 -16 36 -44 110 -56 179 -28
l40 16 35 -31 c34 -30 66 -38 99 -25 16 6 23 43 9 45 -5 1 -18 3 -31 4 -13 1
-34 13 -47 25 -20 19 -25 33 -25 71 0 56 -13 95 -42 126 -19 21 -21 33 -19
168 1 128 4 153 26 211 29 76 31 94 11 94 -13 0 -66 -124 -66 -155 0 -11 -20
-25 -36 -25 -2 0 -4 10 -4 23 0 70 169 325 206 310 28 -10 -3 -161 -41 -203
-40 -42 -40 -68 -1 -145 43 -86 78 -125 112 -125 14 0 75 25 136 55 93 47 118
55 165 55 53 0 58 2 97 43 22 24 55 61 72 82 l30 39 40 -19 c50 -24 120 -22
181 5 44 19 49 20 80 5 24 -12 33 -22 33 -41 0 -32 16 -64 43 -85 20 -16 20
-17 1 -27 -11 -5 -46 -17 -79 -26 -94 -24 -126 -76 -90 -146 8 -15 29 -37 48
-49 29 -18 33 -24 29 -56 -3 -24 -13 -41 -32 -55 -25 -18 -28 -25 -23 -55 4
-26 1 -41 -13 -56 -21 -23 -54 -121 -54 -162 0 -37 -18 -79 -68 -156 -23 -35
-45 -80 -48 -100 -4 -20 -18 -58 -33 -86 -21 -41 -25 -63 -24 -120 0 -38 2
-78 4 -89 3 -14 -3 -19 -22 -21 -15 -2 -41 -11 -57 -19 -17 -9 -37 -16 -43
-16 -7 0 -79 65 -160 145 -81 80 -154 145 -162 145 -31 0 -27 -20 10 -52 176
-153 352 -353 330 -374 -3 -3 -32 -8 -64 -11 -75 -7 -108 10 -200 103 -106
110 -379 315 -436 329 -43 11 -34 -18 12 -38 57 -25 282 -199 376 -289 l80
-77 -46 -1 c-26 0 -64 7 -85 16 -86 36 -155 -4 -249 -145 -68 -102 -117 -154
-195 -207 -61 -42 -80 -48 -80 -26 0 32 42 87 131 172 74 70 89 90 89 115 0
32 -33 95 -49 95 -19 0 -22 -21 -7 -45 29 -45 20 -62 -83 -163 -101 -100 -129
-147 -117 -196 9 -36 34 -39 90 -11 91 45 169 116 231 212 31 48 69 101 84
116 50 55 108 71 147 42 18 -14 16 -18 -52 -82 -40 -38 -94 -84 -121 -104 -56
-41 -78 -80 -87 -156 -5 -39 -3 -55 9 -66 13 -14 10 -22 -30 -76 -24 -33 -67
-77 -95 -98 -45 -33 -64 -63 -42 -63 32 0 154 120 195 192 12 20 33 43 47 52
14 8 61 47 105 87 97 86 121 99 202 109 41 5 96 24 161 54 54 25 106 46 115
46 28 0 20 -43 -18 -100 -35 -52 -44 -80 -25 -80 14 0 90 119 90 142 0 29 18
21 29 -14 15 -50 23 -113 26 -202 2 -47 14 -123 29 -181 14 -54 26 -114 26
-131 0 -59 -74 -124 -141 -124 l-33 0 34 35 c37 38 45 85 18 112 -23 22 -40 7
-33 -27 5 -23 1 -35 -22 -57 -15 -16 -44 -36 -63 -45 -19 -9 -44 -23 -55 -32
-44 -33 -378 -197 -432 -211 -56 -15 -113 -12 -113 5 0 4 17 15 39 23 21 9 49
29 61 44 l22 28 -41 3 c-29 2 -63 -7 -123 -33 -46 -19 -101 -38 -123 -41 l-40
-6 24 20 c14 11 88 46 165 77 78 32 147 62 154 68 19 15 -5 39 -27 27 -10 -5
-69 -30 -132 -55 -63 -26 -138 -60 -168 -76 -36 -19 -62 -27 -77 -23 -54 14
-20 37 181 125 184 81 255 117 255 129 0 6 -5 10 -11 10 -12 0 -349 -149 -429
-190 -81 -42 -137 -63 -148 -56 -5 3 -12 0 -15 -8 -3 -7 -22 -16 -41 -20 -20
-4 -36 -12 -36 -19 0 -6 -7 -4 -17 6 -16 16 -15 19 12 48 19 20 102 67 221
124 104 51 196 101 204 109 17 21 4 34 -18 18 -9 -7 -60 -33 -112 -58 -278
-131 -340 -173 -340 -225 0 -23 8 -34 35 -50 19 -12 35 -24 35 -29 0 -20 -37
-34 -98 -36 -39 -1 -80 -9 -97 -18 -45 -24 -93 -21 -97 5 -3 22 68 109 88 109
18 0 42 33 51 69 8 30 15 36 56 48 26 7 84 39 129 70 46 30 98 61 117 68 43
15 52 35 16 35 -33 0 -51 -9 -150 -76 -44 -30 -96 -57 -115 -60 l-35 -7 24 26
c13 15 66 50 118 78 51 29 93 58 93 66 0 7 -4 13 -9 13 -14 0 -173 -90 -209
-119 -19 -14 -45 -32 -58 -39 -13 -7 -24 -17 -24 -21 0 -4 -26 -14 -57 -21
-67 -15 -123 -62 -123 -104 0 -31 11 -32 76 -10 25 8 47 14 49 12 2 -2 -7 -18
-20 -35 -20 -24 -32 -31 -63 -31 -21 0 -44 -2 -52 -4 -8 -2 -16 6 -18 17 -7
33 -19 38 -53 21 -48 -24 -62 -20 -98 24 -49 61 -57 93 -35 138 17 35 17 40
-1 102 -10 36 -21 121 -25 190 -5 78 -14 140 -24 164 -9 21 -16 47 -16 58 0
11 -9 37 -19 57 -11 20 -31 80 -45 135 -14 54 -37 115 -51 135 -14 21 -25 44
-25 52 0 8 -17 51 -38 95 -21 43 -42 99 -46 123 -4 24 -13 56 -21 70 -7 14
-17 43 -20 63 -3 21 -12 41 -20 45 -14 8 -103 305 -130 432 -8 39 -17 152 -20
253 -5 193 -12 256 -26 274 -5 6 -5 34 1 66 12 62 6 470 -9 708 -8 121 -18
185 -45 289 -36 141 -53 174 -75 147 -10 -12 -5 -43 24 -158 38 -150 60 -348
37 -334 -21 12 -62 91 -93 177 -52 144 -110 239 -146 239 -23 0 -26 -30 -6
-53 34 -37 69 -107 109 -216 26 -72 53 -125 85 -168 43 -56 74 -133 53 -133
-4 0 -27 12 -51 26 -61 35 -113 120 -152 244 -17 55 -45 144 -62 199 -35 115
-54 148 -75 130 -11 -9 -11 -15 0 -38 8 -14 26 -66 41 -116 58 -193 88 -281
107 -318 29 -57 96 -125 149 -152 46 -24 46 -24 53 -86 3 -34 6 -93 6 -131 l0
-70 -32 7 c-18 3 -71 24 -117 47 -69 33 -101 57 -175 132 -50 51 -106 119
-125 151 -60 104 -62 108 -73 97 -24 -24 91 -192 204 -296 84 -79 156 -122
252 -151 52 -16 72 -27 75 -41 2 -10 -2 -61 -9 -111 -10 -75 -10 -96 0 -108 8
-10 13 -49 14 -109 l1 -93 -59 -69 c-51 -59 -258 -362 -295 -433 -11 -19 -11
-25 0 -32 27 -17 48 -8 71 29 29 46 215 293 262 347 l35 40 1 -31 c0 -65 34
-224 85 -400 52 -183 52 -185 40 -245 -14 -68 -39 -107 -78 -127 -33 -16 -66
-8 -107 27 -29 24 -32 31 -26 62 3 20 22 62 41 94 37 60 42 75 25 75 -16 0
-69 -89 -87 -147 -18 -59 -33 -69 -33 -23 0 42 32 122 91 224 34 59 47 92 40
99 -6 6 -23 -11 -51 -54 -77 -119 -120 -233 -120 -319 0 -28 2 -29 26 -20 22
9 33 5 72 -24 26 -18 61 -37 78 -40 41 -9 95 13 120 48 11 15 26 37 35 48 l16
22 17 -32 c29 -55 22 -69 -41 -89 -78 -25 -115 -63 -112 -117 2 -32 0 -40 -12
-36 -8 2 -59 4 -114 5 l-100 0 -28 70 c-15 38 -33 73 -40 77 -22 14 -53 8 -87
-17 -39 -28 -75 -32 -84 -9 -22 57 14 135 124 267 75 90 92 117 71 117 -13 0
-162 -184 -194 -239 -28 -49 -37 -113 -23 -159 7 -20 4 -22 -30 -22 l-37 0 7
39 c17 110 99 255 267 473 60 78 106 144 103 147 -8 8 -59 -52 -170 -199 -97
-129 -179 -275 -210 -374 -10 -31 -21 -56 -25 -56 -13 0 -29 37 -29 68 0 42
29 121 50 132 19 10 110 140 110 157 0 6 -7 14 -15 17 -11 4 -26 -9 -48 -41
-18 -25 -42 -58 -55 -72 l-23 -26 5 125 c5 135 19 209 72 391 39 136 38 129
21 129 -9 0 -26 -39 -45 -103 -54 -175 -73 -274 -78 -417 -4 -97 -12 -153 -26
-197 -38 -115 -12 -197 69 -224 32 -10 49 -9 138 6 16 3 46 16 67 30 21 14 41
25 46 25 4 0 20 -30 35 -67 l26 -67 -38 -33 c-42 -35 -65 -83 -76 -154 l-7
-45 -184 -63 c-209 -72 -280 -83 -349 -57 -35 14 -45 23 -45 41 0 21 -17 58
-109 229 -25 47 -31 71 -31 117 0 52 -2 59 -19 59 -14 0 -21 -9 -26 -31 -12
-55 4 -114 62 -214 67 -117 90 -183 68 -191 -18 -7 -92 35 -121 68 -68 76 -97
173 -98 333 -1 113 -2 120 -21 120 -25 0 -32 -31 -34 -141 -3 -185 83 -364
198 -415 68 -30 36 -51 -244 -157 -233 -89 -255 -96 -337 -112 -53 -11 -60
-10 -100 13 -24 14 -49 22 -57 20 -17 -7 -11 95 20 337 70 565 233 1143 454
1617 25 53 45 100 45 104 0 5 -8 9 -17 9 -13 0 -34 -35 -75 -128 -262 -587
-420 -1211 -473 -1869 l-7 -82 -41 20 c-64 33 -141 113 -175 182 -87 176 -92
406 -17 812 80 437 205 784 380 1060 32 50 89 144 128 210 124 212 297 451
337 467 10 4 25 17 34 30 22 32 177 198 261 280 39 37 142 123 230 190 149
115 190 158 150 158 -21 0 -329 -235 -417 -319 -38 -35 -84 -86 -104 -112 -21
-29 -44 -49 -55 -49 -23 0 -23 1 -5 66 38 144 157 282 402 467 78 59 147 113
154 122 7 8 25 15 41 15 21 0 34 9 56 42 64 95 408 285 663 366 145 46 306 82
440 97 98 11 110 15 110 37 0 20 -4 20 -82 14 -359 -31 -797 -194 -1088 -405
-23 -17 -46 -28 -51 -25 -25 15 49 99 136 152 33 20 121 77 195 127 234 158
410 243 620 298 101 26 132 30 255 30 136 1 144 -1 255 -37 71 -24 139 -39
178 -41 73 -4 143 -34 338 -146 126 -72 154 -81 154 -51 0 12 -46 44 -152 104
-191 109 -267 141 -332 140 -29 -1 -87 11 -140 28 -149 47 -171 51 -294 51
-294 0 -556 -102 -975 -381 -233 -155 -278 -195 -292 -261 -4 -16 -10 -29 -15
-29 -4 0 -13 -13 -20 -30 -15 -37 -54 -72 -206 -187 -229 -173 -334 -291 -389
-437 -14 -37 -25 -74 -25 -82 0 -9 -18 -42 -40 -73 -23 -32 -44 -75 -47 -97
-5 -28 -33 -74 -103 -165 -52 -70 -138 -199 -189 -286 -52 -87 -113 -187 -136
-223 -216 -331 -357 -752 -436 -1294 -17 -123 -20 -180 -16 -315 5 -181 20
-254 74 -353 38 -70 129 -161 192 -190 35 -15 49 -28 46 -37 -14 -35 16 -80
76 -116 61 -37 66 -46 50 -88 -7 -17 -20 -26 -45 -31 -91 -17 -232 -120 -288
-209 -24 -39 -45 -58 -82 -77 -40 -20 -53 -32 -60 -58 -16 -58 23 -210 71
-279 5 -7 72 -22 150 -33 78 -11 160 -27 183 -35 63 -22 156 -74 181 -101 28
-30 22 -35 -61 -61 -66 -21 -133 -22 -220 -5 -36 8 -172 16 -303 19 -277 7
-331 0 -372 -49 -30 -35 -37 -35 -200 12 -133 38 -177 45 -205 30 -19 -10 -22
-18 -17 -55 4 -45 66 -143 119 -193 22 -20 27 -21 37 -8 10 12 6 22 -22 53
-59 67 -87 109 -93 141 -8 42 0 42 151 -4 l120 -37 286 -6 c220 -5 290 -9 302
-20 24 -20 21 -26 -22 -52 -85 -51 -561 -631 -640 -779 -26 -50 -35 -82 -32
-117 2 -29 19 -10 30 34 20 79 117 216 355 503 175 210 274 318 306 335 66 34
72 72 16 103 -26 14 -67 17 -253 20 -123 2 -223 8 -223 13 0 5 12 17 27 26 23
15 56 19 212 21 233 5 521 -19 486 -40 -6 -3 -28 -11 -50 -18 -71 -23 -106
-40 -100 -50 3 -5 45 7 93 27 48 19 119 43 157 52 39 10 92 27 119 39 59 27
62 27 93 2 33 -26 73 -25 124 1 23 11 42 19 43 17 2 -2 11 -30 22 -63 32 -100
84 -105 188 -20 24 19 54 35 66 35 13 0 54 -18 91 -41 37 -22 80 -44 96 -49
25 -8 24 -8 -17 -9 -105 -3 -331 -21 -381 -32 -74 -16 -166 -59 -215 -102 -51
-44 -106 -147 -108 -198 -1 -48 45 -100 119 -135 53 -25 123 -32 142 -13 8 8
20 8 46 0 34 -12 67 -7 67 10 0 5 9 9 20 9 39 0 43 -40 25 -247 -24 -295 -29
-317 -116 -504 -88 -191 -100 -243 -130 -610 -11 -136 -10 -196 7 -429 l7 -86
-304 -12 c-368 -15 -562 -27 -774 -48 -278 -26 -535 -63 -535 -76 0 -12 19
-10 170 12 318 46 876 87 1274 93 l170 2 9 -33 c6 -18 7 -35 3 -39 -4 -4 -161
-11 -349 -15 -345 -8 -552 -19 -564 -31 -15 -16 12 -17 123 -8 66 6 272 14
460 18 l341 6 11 -32 c9 -24 8 -33 -1 -36 -7 -2 -165 -6 -352 -8 -201 -3 -414
-12 -520 -22 -195 -18 -213 -21 -199 -35 5 -5 66 -3 144 5 319 32 905 46 928
23 22 -22 12 -56 -38 -130 -48 -69 -50 -76 -49 -133 1 -48 -4 -71 -27 -115
-53 -104 -41 -218 28 -259 128 -79 482 -61 515 25 12 31 -15 38 -46 11 -59
-49 -270 -61 -399 -22 -62 19 -92 57 -92 120 0 47 50 159 75 169 9 3 52 -5 94
-18 123 -38 152 -41 231 -16 73 23 90 21 90 -10 0 -22 -41 -46 -96 -58 -21 -4
-39 -13 -42 -20 -6 -20 49 -14 105 12 28 13 54 22 57 18 3 -3 6 -17 6 -32 0
-38 -38 -55 -117 -53 -47 1 -63 -2 -63 -12 0 -21 15 -26 78 -27 107 -1 156 45
134 128 -16 60 -15 68 10 134 l23 57 100 1 c147 1 305 13 305 24 0 5 -78 6
-200 2 l-200 -7 0 27 c0 15 -4 36 -10 46 -8 15 -5 19 28 24 20 3 181 9 358 12
l321 7 22 -36 c30 -49 95 -106 150 -130 87 -38 227 -33 321 13 24 12 45 15 68
10 43 -10 292 0 292 11 0 12 -20 13 -176 9 -72 -1 -134 2 -136 6 -3 5 -1 24 4
43 l9 34 86 -7 c108 -9 683 4 683 15 0 5 -170 10 -377 11 l-378 3 -11 45 c-10
42 -9 46 10 54 12 5 150 11 309 14 217 3 287 8 287 17 0 20 -222 27 -430 14
-245 -15 -231 -17 -244 28 -6 19 -2 23 25 30 31 9 59 36 48 48 -4 3 -18 1 -33
-5 -36 -13 -48 -5 -34 24 8 19 7 29 -6 47 -28 40 -14 295 19 341 8 13 15 31
15 41 0 10 6 28 14 40 8 12 19 47 26 77 6 30 18 78 26 105 13 45 33 188 33
240 2 126 0 146 -19 191 -12 27 -25 56 -30 65 -4 9 -11 42 -15 75 -3 32 -11
82 -16 111 -7 36 -7 58 1 72 9 19 22 141 37 368 l5 72 54 11 c42 9 80 9 157
-1 77 -9 115 -9 154 -1 29 7 62 8 73 4 12 -4 47 -5 78 -1 31 3 60 4 64 0 18
-16 61 -154 77 -250 11 -58 25 -138 32 -177 11 -64 10 -89 -12 -245 -15 -109
-24 -219 -24 -294 1 -108 5 -134 38 -253 52 -182 97 -308 166 -465 85 -193
104 -258 105 -349 0 -72 -4 -84 -44 -164 -54 -106 -57 -146 -14 -183 42 -36
56 -72 38 -96 -20 -27 -17 -85 5 -121 43 -70 217 -119 334 -95 58 13 117 51
117 77 0 21 -27 17 -61 -8 -24 -18 -47 -24 -109 -26 -96 -5 -176 16 -225 59
-40 35 -43 58 -16 103 14 22 17 36 11 46 -6 8 -10 20 -10 27 0 14 100 38 228
54 l93 12 35 -34 c51 -49 67 -84 60 -131 -7 -41 6 -51 24 -19 22 42 3 99 -53
159 -24 24 -28 35 -19 44 16 16 50 -1 107 -53 36 -33 45 -48 45 -75 0 -23 7
-38 25 -53 49 -37 236 -66 540 -81 223 -11 284 -20 455 -65 105 -27 150 -31
183 -14 12 7 58 43 102 82 98 85 124 97 218 97 78 0 159 19 218 52 20 11 45
18 55 16 28 -5 29 -49 3 -82 -32 -41 -123 -96 -157 -96 -16 0 -74 -14 -128
-30 -54 -17 -107 -29 -118 -28 -10 2 -21 -3 -23 -9 -8 -22 65 -15 164 17 51
16 100 30 109 30 8 0 26 -13 40 -29 50 -60 248 -68 431 -20 53 14 57 26 48
150 l-7 99 44 45 43 45 230 5 c127 2 318 12 425 21 107 9 319 17 470 19 277 2
366 15 183 26 -117 7 -467 -5 -758 -26 -232 -16 -535 -20 -535 -6 0 10 74 47
114 57 25 6 26 8 11 24 -15 16 -13 20 26 52 23 20 43 44 44 54 0 11 13 31 28
46 36 36 41 66 22 119 -9 24 -23 69 -32 99 -8 30 -27 80 -43 110 -15 30 -38
85 -50 122 l-21 67 25 38 c46 67 37 101 -47 170 -15 13 -27 26 -27 30 0 5 20
21 44 37 73 49 80 69 72 210 -4 67 -12 158 -19 204 -9 56 -10 85 -3 92 6 6 13
98 16 218 6 204 15 259 45 269 6 2 23 -17 38 -42 30 -47 64 -75 124 -105 33
-16 39 -27 84 -146 42 -112 48 -136 43 -179 -7 -55 2 -69 79 -128 33 -25 37
-32 37 -75 0 -26 -9 -81 -20 -122 -11 -41 -20 -91 -20 -111 0 -51 46 -117 126
-181 110 -89 108 -88 295 -83 193 5 193 5 319 -110 99 -90 136 -115 170 -115
38 0 64 23 100 87 18 32 39 66 47 75 21 23 9 50 -19 46 -16 -2 -33 -21 -55
-58 -51 -90 -66 -105 -89 -92 -11 6 -58 45 -105 87 -115 105 -168 135 -241
135 l-57 0 17 40 c9 22 22 40 29 40 6 0 35 27 64 59 55 63 63 65 106 25 13
-12 39 -26 56 -30 35 -7 90 -34 156 -76 25 -15 51 -28 60 -28 8 0 37 -17 65
-39 59 -44 95 -56 103 -35 3 8 -2 23 -11 33 -17 18 -21 41 -8 41 4 0 15 -9 25
-20 32 -38 67 6 67 85 0 64 -39 101 -79 76 -32 -21 -242 111 -217 136 3 3 51
-4 106 -16 55 -11 113 -21 127 -21 15 0 34 -7 44 -16 9 -8 25 -15 35 -15 46
-1 129 13 154 26 49 25 108 104 171 229 72 140 121 207 217 293 38 34 77 79
87 99 17 36 17 42 -4 158 -28 159 -41 327 -43 566 -1 175 1 201 20 255 12 34
17 64 12 69 -18 18 -40 -5 -57 -61 -32 -104 -18 -644 23 -836 25 -121 27 -116
-100 -247 -104 -109 -119 -129 -176 -242 -72 -142 -128 -221 -171 -244 -43
-22 -47 -11 -10 28 78 82 141 220 166 364 17 101 20 333 4 509 -5 66 -10 195
-10 288 -1 155 -2 167 -19 167 -31 0 -34 -90 -15 -429 24 -429 12 -563 -65
-728 -39 -84 -114 -177 -150 -186 -27 -7 -25 4 10 48 37 47 40 82 6 91 -31 8
-59 -1 -119 -37 -48 -29 -81 -37 -92 -20 -3 5 13 64 36 131 29 87 38 125 30
133 -12 12 -14 6 -62 -139 -28 -85 -49 -117 -65 -102 -3 3 7 36 21 74 24 63
27 102 7 90 -5 -3 -21 -37 -36 -76 l-28 -71 -57 7 c-44 5 -65 2 -89 -10 -17
-9 -41 -16 -54 -16 -13 0 -38 -9 -57 -21 -18 -11 -68 -33 -109 -48 -69 -25
-78 -31 -99 -71 -19 -36 -23 -59 -23 -131 0 -130 -3 -134 -115 -149 -74 -10
-97 -10 -116 0 -41 22 -135 98 -164 132 -44 52 -47 71 -25 161 43 179 38 215
-38 273 -59 44 -64 54 -50 90 9 25 4 47 -46 178 -31 82 -57 151 -59 152 -1 1
-30 18 -65 39 -93 54 -130 115 -139 225 l-6 83 47 -6 c65 -9 100 -28 104 -55
4 -27 22 -29 22 -2 0 31 -38 58 -99 71 -31 6 -59 13 -62 15 -7 4 15 121 24
131 4 3 41 -11 83 -31 82 -39 104 -44 104 -22 0 7 -42 33 -94 57 -64 30 -92
48 -88 57 6 18 47 10 124 -25 42 -19 62 -23 70 -15 7 7 -6 19 -48 40 -33 16
-69 33 -82 36 -12 4 -41 18 -64 31 l-42 24 26 12 c22 9 39 8 100 -11 40 -12
86 -29 102 -37 18 -9 32 -11 38 -5 15 15 -26 38 -129 73 -78 26 -96 36 -109
60 -24 47 -1 44 131 -15 72 -32 124 -50 130 -45 14 14 -2 24 -100 64 -49 21
-98 42 -108 47 -35 18 -9 20 47 2 46 -15 60 -15 83 -5 27 12 27 13 8 27 -11 8
-45 22 -75 31 -62 17 -94 39 -45 30 17 -3 59 -9 94 -13 52 -6 63 -4 59 7 -6
17 -85 37 -155 38 -40 1 -53 5 -53 16 0 9 9 15 25 15 15 0 40 7 57 16 17 9 52
22 79 30 27 8 49 19 49 23 0 5 17 12 37 16 21 4 104 32 186 63 108 40 151 52
159 44 8 -8 -19 -43 -101 -132 -102 -110 -121 -140 -88 -140 7 0 60 50 118
112 l106 112 27 -41 c26 -39 27 -42 12 -72 -20 -38 -21 -97 -2 -104 34 -13 46
-54 57 -190 10 -140 22 -194 83 -362 20 -55 36 -109 36 -120 0 -15 -26 -35
-95 -75 -98 -57 -113 -73 -94 -96 18 -21 29 -18 114 36 44 28 84 50 90 50 5 0
19 -20 31 -45 20 -43 20 -47 4 -83 -10 -20 -47 -63 -82 -94 -69 -60 -98 -107
-98 -157 0 -24 4 -31 20 -31 15 0 20 7 20 25 0 41 23 75 104 152 54 51 78 83
87 112 9 30 19 43 42 51 44 15 65 12 88 -11 21 -21 21 -28 3 -122 -6 -27 -4
-26 70 27 53 38 118 71 223 112 81 33 151 61 156 62 4 2 7 -26 7 -63 0 -49 3
-66 13 -62 8 2 12 28 13 76 1 55 6 77 19 89 16 16 17 13 13 -53 -5 -73 1 -115
16 -118 5 -1 10 43 13 97 2 59 10 111 19 127 8 15 14 35 14 44 0 8 4 15 9 15
5 0 11 8 14 18 18 79 19 -545 1 -681 -6 -44 -4 -49 12 -45 49 9 58 337 29
1038 -5 119 -16 186 -30 183 -16 -4 -18 -44 -5 -116 9 -50 9 -72 1 -80 -8 -8
-11 -7 -11 4 0 7 -11 41 -25 74 -15 37 -25 80 -25 113 0 48 -2 52 -24 52 -14
0 -39 12 -56 27 -23 19 -43 27 -68 26 -71 -2 -102 -37 -158 -172 -32 -78 -55
-104 -75 -84 -16 16 16 110 43 126 10 7 42 42 69 78 64 86 86 95 187 80 98
-16 177 -53 198 -93 9 -17 14 -47 12 -71 -2 -31 1 -42 11 -42 20 0 34 49 27
90 -15 77 -86 123 -232 150 -114 22 -149 13 -201 -52 -21 -25 -51 -61 -67 -80
l-29 -35 -13 24 c-25 44 -17 82 30 146 24 33 61 85 81 115 23 35 50 62 73 73
34 16 42 16 141 0 164 -26 338 -74 423 -116 59 -28 80 -34 88 -25 31 38 -163
115 -419 167 -144 29 -231 30 -268 2 -25 -19 -133 -159 -184 -239 -23 -37 -24
-93 -2 -139 14 -30 14 -42 5 -74 -15 -50 -15 -95 0 -110 7 -7 27 -12 44 -12
37 0 66 30 85 88 45 141 123 208 175 151 10 -12 29 -25 42 -30 15 -6 22 -17
22 -36 0 -16 12 -59 27 -98 22 -60 26 -84 24 -165 -3 -103 -36 -245 -69 -290
-21 -28 -91 -65 -202 -106 -41 -15 -106 -43 -145 -63 -38 -20 -73 -37 -77 -39
-5 -2 -8 8 -8 23 0 33 -42 73 -84 80 -17 4 -50 0 -73 -8 l-41 -14 -21 47 c-12
25 -21 60 -21 76 0 16 -16 74 -36 129 -61 175 -73 224 -83 359 -11 143 -23
191 -52 207 -23 12 -24 30 -3 70 21 42 11 78 -37 132 -21 25 -39 54 -39 64 0
10 25 44 55 75 56 58 67 84 39 95 -11 4 -37 -15 -82 -59 -52 -51 -80 -70 -127
-86 -33 -11 -109 -39 -170 -63 -95 -36 -119 -42 -180 -40 -38 1 -83 -4 -98
-10 -31 -13 -165 5 -191 25 -8 6 -28 56 -45 111 l-30 100 27 22 c24 19 25 22
9 28 -9 4 -24 2 -32 -5 -22 -18 -29 -6 -17 27 25 65 59 143 69 155 6 7 21 41
32 74 23 66 24 57 -17 209 -11 39 -21 76 -23 84 -3 10 26 23 98 46 100 32 178
70 202 99 7 8 34 18 59 21 74 10 92 15 92 26 0 6 -9 8 -20 4 -49 -16 -7 33 48
55 35 13 38 20 21 37 -16 16 26 83 51 83 44 0 50 -9 50 -80 0 -42 -5 -71 -12
-77 -7 -5 -52 -26 -100 -47 -92 -40 -118 -60 -101 -77 6 -6 43 6 105 36 52 25
98 45 102 45 3 0 6 -8 5 -17 0 -12 -27 -31 -82 -58 -82 -40 -104 -67 -60 -73
12 -2 49 11 82 27 33 17 65 31 71 31 5 0 10 -13 10 -29 0 -25 -10 -37 -62 -74
-35 -25 -73 -48 -85 -51 -13 -4 -23 -14 -23 -22 0 -22 34 -10 103 37 32 21 62
39 66 39 10 0 23 -59 16 -70 -2 -4 -32 -17 -64 -30 -66 -24 -90 -45 -74 -61 7
-7 30 -2 73 15 79 32 90 32 90 1 0 -20 -9 -28 -50 -46 -54 -23 -75 -42 -65
-58 4 -7 28 0 65 19 l59 30 9 -38 c5 -20 14 -70 21 -110 10 -66 29 -116 64
-165 10 -14 8 -21 -15 -40 -31 -27 -52 -73 -38 -82 6 -4 14 3 18 13 14 38 82
102 108 102 35 0 81 25 138 77 60 54 89 63 119 35 27 -25 69 -36 215 -57 62
-9 136 -23 164 -31 49 -15 78 -9 64 14 -9 15 -111 39 -236 57 -136 19 -172 29
-195 55 -33 36 -82 19 -178 -63 -126 -107 -156 -61 -212 331 -8 57 -17 108
-21 113 -3 6 -10 36 -15 67 -6 31 -13 78 -18 104 -4 26 -5 73 -3 105 l4 58 52
0 c69 1 115 28 144 85 27 53 32 53 122 0 86 -52 149 -66 375 -85 105 -9 207
-19 228 -22 32 -5 37 -3 37 15 0 26 -9 28 -235 47 -252 21 -286 28 -378 81
-43 25 -91 47 -107 51 -17 3 -30 11 -30 17 0 6 18 37 40 70 69 101 52 162 -60
232 l-60 37 0 51 c0 78 -34 187 -104 333 -89 183 -134 223 -421 373 -77 41
-158 86 -179 102 -53 38 -101 37 -179 -3 -34 -17 -70 -37 -81 -45 -18 -12 -22
-10 -50 33 -43 65 -73 84 -142 90 -104 9 -193 -30 -228 -101 -19 -38 -19 -39
3 -90 11 -28 21 -57 21 -63 0 -6 -19 -18 -42 -27 -45 -17 -202 -46 -246 -46
-25 0 -25 1 -17 58 11 74 12 178 3 220 -7 28 -5 32 14 32 33 0 101 37 123 67
25 35 33 97 43 315 4 97 10 180 14 183 4 4 1 14 -7 22 -8 8 -15 22 -15 31 0
29 104 118 183 157 91 45 107 40 107 -32 0 -41 -5 -49 -68 -116 -84 -89 -110
-132 -118 -191 -4 -25 -10 -46 -15 -46 -4 0 -13 -16 -19 -35 -10 -29 -8 -44 9
-91 23 -66 53 -111 90 -139 22 -17 41 -20 123 -20 93 0 99 1 125 27 29 30 24
50 -7 30 -11 -7 -22 -12 -25 -12 -9 0 6 53 21 78 17 26 8 28 -24 6 -28 -20
-39 -12 -21 14 26 36 87 83 94 72 4 -6 5 -36 3 -67 -4 -65 12 -80 36 -34 28
53 15 125 -28 160 -26 21 -19 56 23 121 22 34 43 74 46 91 14 61 -40 77 -110
34 -22 -13 -43 -25 -47 -25 -5 0 -8 20 -8 44 0 24 -7 57 -15 72 -8 16 -15 39
-15 52 0 13 -7 36 -15 51 -25 49 -63 53 -144 16 -125 -58 -230 -156 -232 -215
0 -16 -12 -34 -31 -50 -29 -23 -39 -24 -147 -25 -146 0 -178 11 -261 90 -36
35 -76 66 -89 70 -30 9 -71 96 -78 169 -7 67 10 119 45 142 42 26 121 107 115
117 -3 5 -32 -17 -64 -49 -32 -32 -60 -56 -63 -53 -2 2 9 32 24 66 42 92 45
118 20 143 -18 18 -29 21 -65 15 -39 -5 -43 -4 -38 13 4 15 -5 23 -49 38 -59
21 -72 45 -33 62 27 13 34 32 11 32 -8 0 -31 -20 -51 -45 -41 -49 -95 -84 -95
-60 0 7 23 34 51 59 65 58 55 81 -11 26 -27 -23 -52 -49 -55 -59 -4 -15 -14
-17 -54 -13 -42 4 -50 1 -65 -19 -28 -41 -21 -57 29 -64 70 -11 78 -22 79
-103 1 -88 -21 -125 -77 -130 -35 -3 -37 -2 -37 28 0 28 -2 31 -22 24 -13 -4
-42 -22 -65 -42 -32 -26 -49 -33 -67 -28 -33 8 -41 33 -13 42 13 4 23 2 25 -6
5 -14 82 58 82 77 0 18 -7 17 -58 -13 -34 -20 -46 -23 -52 -14 -12 20 -2 37
25 44 14 4 29 15 35 26 16 30 -15 38 -44 11 -36 -34 -41 -24 -7 14 17 20 31
38 31 40 0 14 -25 1 -56 -31 -20 -19 -38 -33 -41 -30 -8 8 159 335 188 366 14
15 43 33 65 39 57 16 204 13 234 -4 33 -19 70 -19 98 0 16 12 27 13 41 6 11
-6 50 -22 88 -35 298 -106 484 -12 533 269 16 92 11 130 -15 130 -15 0 -19 -6
-17 -25 4 -35 -17 -156 -35 -199 -51 -120 -135 -177 -263 -174 -79 1 -198 34
-277 76 -60 31 -251 197 -326 281 -35 39 -94 119 -132 179 -38 59 -73 107 -77
107 -18 0 -4 -28 62 -128 39 -58 70 -109 70 -115 0 -6 -19 -7 -47 -3 -89 11
-96 11 -100 -1 -8 -23 48 -47 110 -48 l60 0 58 -60 c32 -33 98 -94 147 -135
54 -44 86 -78 79 -82 -6 -3 -25 1 -41 10 -39 21 -211 23 -271 3 -73 -25 -90
-45 -170 -201 -43 -83 -92 -169 -111 -191 -28 -34 -34 -49 -34 -89 0 -60 12
-91 50 -138 17 -20 30 -40 30 -45 0 -5 -34 -52 -75 -106 -72 -94 -153 -178
-225 -232 -19 -15 -32 -30 -27 -35 23 -23 172 113 277 254 l75 101 48 1 c36 0
47 -4 47 -15 0 -32 -58 -122 -112 -173 -32 -30 -76 -82 -99 -117 -37 -56 -46
-63 -80 -68 -21 -3 -85 -28 -141 -56 -56 -29 -105 -48 -109 -44 -19 19 -79
128 -79 143 0 9 11 30 25 46 30 34 43 76 52 162 5 54 10 65 30 75 33 15 37 45
14 99 -19 45 -19 52 -6 187 17 167 37 221 108 295 88 92 174 251 226 421 25
81 26 97 5 93 -11 -2 -28 -37 -50 -102 -58 -171 -123 -292 -205 -381 l-41 -44
-24 29 c-14 17 -54 40 -95 57 -153 62 -162 93 -74 258 87 161 86 213 -6 470
-39 111 -42 172 -10 238 31 65 25 131 -23 231 -38 79 -63 103 -167 160 -72 39
-313 136 -339 136 -10 0 -33 -7 -53 -15 -32 -13 -49 -11 -255 30 -227 45 -285
65 -321 111 -39 50 -16 54 116 23 164 -39 434 -86 439 -77 3 5 3 12 0 15 -3 3
-94 23 -203 43 -201 38 -310 64 -321 75 -15 15 29 64 103 115 44 30 114 89
156 132 l76 77 34 -35 c53 -55 75 -63 160 -58 100 7 127 -8 201 -117 64 -94
90 -118 165 -154 65 -31 103 -33 103 -5 0 11 -8 23 -17 26 -10 3 -46 19 -80
35 -55 27 -69 40 -123 119 -90 133 -130 156 -251 148 l-69 -5 -56 48 c-30 27
-63 49 -73 49 -10 0 -44 -29 -76 -65 -32 -36 -101 -97 -154 -134 -105 -75
-120 -90 -145 -138 -9 -18 -21 -33 -27 -33 -5 0 2 20 16 43 37 65 33 96 -21
159 -68 79 -83 116 -93 222 -12 121 -54 209 -90 187z m2463 -2577 c23 -9 19
-21 -9 -28 -14 -4 -31 -16 -39 -29 -14 -22 -68 -231 -81 -314 -4 -24 -11 -45
-16 -49 -5 -3 -9 -14 -9 -24 0 -11 -7 -37 -16 -59 -12 -32 -25 -43 -64 -60
-86 -37 -170 -20 -170 34 0 13 13 45 29 71 17 25 33 59 36 74 5 21 20 35 68
60 74 39 94 56 113 93 15 29 20 115 10 163 -6 27 -3 30 46 51 57 23 78 26 102
17z m110 -91 c-89 -203 -100 -270 -62 -378 14 -38 28 -78 32 -87 6 -12 -8 -32
-54 -78 -35 -33 -64 -59 -66 -57 -14 14 -28 109 -23 147 4 25 2 69 -3 99 -8
45 -5 73 17 175 38 171 44 182 102 200 73 22 76 22 57 -21z m-593 -495 c-17
-15 -44 -48 -61 -73 -30 -43 -66 -72 -77 -62 -8 8 55 96 112 156 45 49 50 51
53 31 3 -16 -6 -33 -27 -52z m709 -73 c80 -81 130 -98 298 -99 106 -1 135 -4
142 -16 24 -38 -64 -50 -215 -29 -153 21 -253 67 -308 141 -17 22 -18 30 -7
43 20 24 32 19 90 -40z m832 23 c-3 -24 -14 -40 -42 -60 -37 -27 -70 -80 -70
-113 0 -19 -27 -44 -47 -45 -18 0 -16 28 6 76 17 38 135 174 150 174 4 0 5
-15 3 -32z m154 -71 c-37 -61 -47 -72 -86 -92 -19 -10 -63 -45 -97 -78 -66
-63 -71 -64 -50 -7 22 62 245 262 255 230 2 -6 -8 -29 -22 -53z m-1084 -10
c29 -29 73 -63 98 -75 68 -33 186 -60 294 -68 53 -4 96 -11 96 -16 0 -5 -28
-39 -62 -74 -45 -47 -59 -67 -51 -75 9 -9 26 3 67 41 70 66 86 63 86 -19 0
-40 5 -65 15 -75 30 -30 9 -83 -45 -111 -34 -18 -80 -20 -80 -4 0 13 -9 20
-86 74 -34 24 -66 38 -95 41 -139 14 -203 32 -254 70 -51 38 -151 67 -207 61
-43 -6 -53 -3 -74 18 -26 27 -31 57 -11 73 7 6 34 16 61 22 86 19 126 50 126
96 0 18 47 74 61 74 4 0 32 -24 61 -53z m958 15 c0 -8 -69 -76 -102 -101 -34
-25 1 46 38 79 33 28 64 39 64 22z m52 -163 c-3 -23 -15 -38 -48 -59 -45 -28
-84 -70 -84 -89 0 -6 -7 -11 -15 -11 -9 0 -15 9 -15 24 0 16 23 46 73 95 39
39 77 71 83 71 6 0 9 -13 6 -31z m-4008 -195 c-34 -36 -254 -328 -280 -370 -7
-11 -15 -16 -19 -12 -10 10 178 303 262 408 l68 85 3 -36 c2 -29 -3 -42 -34
-75z m3806 51 c4 -33 10 -41 35 -50 49 -16 61 -45 20 -45 -33 0 -90 54 -110
103 l-16 39 33 -4 c30 -3 33 -6 38 -43z m-857 -47 c35 -25 32 -46 -12 -75 -54
-36 -83 -24 -45 18 27 30 12 48 -33 40 -21 -4 -48 -13 -60 -19 -33 -18 -48
-15 -32 5 21 24 111 62 134 56 11 -3 33 -15 48 -25z m-1229 -33 c36 -74 9
-125 -70 -132 -40 -4 -54 -1 -76 17 -16 12 -28 26 -28 32 0 24 50 77 71 75 12
-1 31 10 43 24 26 31 40 28 60 -16z m-183 -10 c-17 -20 -31 -39 -31 -44 0 -5
-18 -11 -39 -15 -22 -3 -46 -9 -55 -12 -24 -9 -20 17 9 57 25 33 51 43 124 48
23 1 23 0 -8 -34z m1510 5 c22 0 4 -24 -51 -66 -33 -26 -62 -54 -65 -63 -7
-23 -245 -100 -245 -80 0 11 42 32 108 54 34 11 60 27 74 46 13 17 31 29 45
29 26 0 93 55 93 77 0 10 6 13 16 9 9 -3 20 -6 25 -6z m129 -29 c0 -3 -20 -17
-46 -30 -25 -13 -56 -38 -70 -54 -19 -22 -36 -31 -71 -35 -43 -5 -45 -4 -34
16 6 11 25 29 43 40 18 12 45 33 60 49 23 24 33 28 73 25 25 -2 45 -7 45 -11z
m50 -51 c0 -5 -13 -16 -30 -25 -16 -8 -33 -22 -38 -31 -6 -10 -19 -14 -38 -12
-29 3 -28 4 26 40 56 37 80 46 80 28z m125 -194 c-25 -53 -43 -101 -40 -106 4
-6 18 -4 35 5 16 8 33 15 38 15 17 0 0 -58 -22 -69 -29 -16 -64 -69 -72 -110
l-7 -34 44 6 43 6 -51 -47 c-86 -78 -92 -120 -15 -107 17 3 32 3 32 0 0 -3
-22 -19 -50 -36 -55 -34 -70 -61 -46 -85 9 -8 16 -19 16 -24 0 -8 -61 -66 -99
-92 -13 -9 -20 -21 -16 -27 13 -23 145 89 145 124 0 7 -7 18 -15 25 -23 19
-19 26 35 59 28 17 50 37 50 45 0 8 3 22 7 32 6 15 1 16 -35 11 -23 -3 -42 -1
-42 3 0 5 23 28 52 53 l51 44 61 -64 c33 -36 61 -74 61 -86 2 -26 -80 -247
-123 -333 -17 -33 -49 -84 -72 -113 -37 -47 -40 -55 -28 -68 13 -12 21 -8 60
36 53 59 109 169 168 331 l42 115 81 2 c80 1 174 20 217 43 16 9 33 9 70 0 64
-15 116 -1 160 46 54 55 86 68 164 65 18 -1 40 -13 62 -35 28 -28 34 -41 34
-79 0 -49 -20 -77 -86 -122 -62 -42 -83 -30 -42 25 26 36 14 55 -13 20 -46
-59 -59 -70 -83 -70 -33 0 -33 14 0 62 15 21 24 41 21 45 -11 10 -33 -14 -52
-57 -23 -50 -60 -62 -166 -54 -68 6 -79 4 -124 -20 -64 -33 -149 -36 -188 -6
-31 24 -55 26 -64 3 -11 -27 48 -71 104 -77 26 -3 93 -13 148 -22 55 -9 141
-20 190 -25 50 -5 118 -14 153 -20 48 -9 66 -8 77 1 25 21 18 40 -15 40 -44 0
-37 18 16 40 57 25 57 25 50 -4 -3 -14 -2 -27 3 -30 4 -3 6 -16 4 -30 -7 -32
13 -66 39 -66 49 0 126 74 113 108 -5 13 -14 8 -47 -26 -22 -23 -47 -42 -54
-42 -21 0 -17 36 9 64 12 13 36 42 52 65 36 48 53 50 126 14 62 -32 73 -58 62
-153 -5 -43 -12 -59 -36 -79 -16 -13 -35 -31 -42 -38 -18 -18 -54 -17 -61 2
-7 17 -59 20 -70 4 -4 -7 3 -10 22 -7 46 5 38 -19 -14 -46 l-50 -25 -18 21
c-26 28 -92 58 -132 58 -50 0 -99 -25 -122 -62 -24 -39 -25 -73 -5 -112 20
-38 19 -43 -8 -50 -23 -5 -146 13 -217 33 -19 5 -54 15 -77 21 -24 6 -43 17
-43 24 0 43 85 50 199 16 76 -22 96 -19 89 16 -4 22 -138 62 -211 63 -76 1
-127 -34 -127 -88 0 -39 -44 -21 -123 48 -56 49 -97 65 -97 39 0 -30 159 -148
199 -148 14 0 91 -16 171 -35 254 -61 354 -39 295 65 -49 85 41 152 140 104
42 -19 85 -109 85 -176 0 -84 -179 -170 -360 -173 -47 -1 -108 -5 -135 -9 -48
-8 -51 -7 -63 18 -19 42 -47 46 -167 26 -59 -11 -171 -22 -249 -25 -78 -3
-152 -6 -166 -7 -14 -1 -60 -1 -103 0 l-77 2 6 53 c4 33 2 62 -5 75 -10 19 -7
25 31 53 24 17 71 47 106 66 43 24 62 40 60 52 -6 27 -54 16 -125 -29 -82 -52
-106 -56 -142 -20 -16 17 -54 36 -93 48 -59 17 -73 27 -144 102 -96 100 -110
120 -130 188 -21 70 -63 162 -74 162 -11 0 -30 66 -30 105 1 45 35 113 80 156
45 44 59 82 40 112 -11 18 -9 23 11 38 31 23 39 16 39 -37 0 -48 15 -58 30
-20 5 13 14 26 21 28 9 3 9 9 -1 25 -16 25 -7 53 18 53 15 0 17 6 14 34 -3 29
1 37 31 60 62 47 183 84 300 92 96 6 109 5 152 -16 26 -12 49 -28 52 -36 2 -7
11 -10 19 -7 8 3 24 -3 34 -12 23 -21 22 -21 45 25 10 19 22 41 28 48 24 30
14 -1 -28 -92z m638 70 c49 -20 95 -98 103 -172 8 -75 -8 -109 -66 -144 -23
-14 -67 -43 -98 -65 -48 -35 -147 -85 -166 -85 -3 0 -6 9 -6 19 0 32 -16 32
-56 0 -36 -28 -39 -29 -51 -12 -8 9 -11 23 -9 30 9 22 -15 14 -51 -17 -18 -16
-37 -30 -42 -30 -4 0 -34 27 -65 60 -77 80 -71 91 59 108 111 15 177 33 223
62 38 24 42 61 13 126 -15 33 -16 45 -7 62 33 61 143 90 219 58z m-2543 -74
c0 -56 -14 -86 -30 -62 -13 20 -13 64 1 94 17 36 29 22 29 -32z m2971 -5 c30
-19 91 -53 136 -75 125 -63 243 -136 294 -181 78 -69 195 -322 205 -444 l5
-62 -43 -37 c-24 -21 -74 -65 -113 -99 -38 -34 -88 -73 -110 -87 -87 -55 -161
-132 -127 -132 5 0 35 23 66 50 60 53 75 62 54 32 -18 -25 -68 -68 -160 -135
-73 -53 -98 -83 -63 -75 27 6 215 151 242 187 15 20 39 45 53 56 13 11 54 46
89 78 35 32 66 56 68 53 3 -3 -5 -26 -18 -53 -34 -69 -126 -156 -269 -252
-160 -108 -240 -170 -240 -187 0 -21 9 -17 69 29 31 24 110 80 177 125 163
110 242 184 287 269 55 104 80 110 166 37 41 -35 42 -82 2 -133 -43 -55 -51
-75 -51 -128 0 -27 -7 -58 -15 -70 -23 -33 -86 -47 -143 -33 -26 6 -67 16 -92
22 l-44 10 24 20 c13 10 29 22 37 26 22 13 34 69 17 83 -15 12 -43 -13 -117
-104 -24 -30 -60 -58 -98 -77 -32 -17 -59 -34 -59 -38 0 -5 -23 -19 -50 -32
-56 -26 -77 -45 -61 -54 6 -4 34 7 64 24 58 33 67 35 67 20 0 -6 -23 -24 -50
-41 -37 -23 -49 -36 -45 -48 4 -13 -7 -25 -45 -45 -61 -33 -223 -86 -267 -86
-17 0 -82 -16 -144 -35 -61 -20 -114 -33 -117 -30 -3 2 1 11 8 20 16 19 4 23
-70 27 l-55 3 60 22 c52 19 71 34 132 103 43 48 77 96 84 118 10 34 18 42 73
66 80 34 125 80 141 143 12 45 16 50 84 86 l71 39 -6 39 c-6 37 -4 41 42 84
55 50 81 55 76 12 -3 -33 11 -35 32 -5 15 21 14 24 -11 51 -23 23 -25 29 -13
37 8 5 22 8 30 5 69 -20 72 -19 68 11 -2 21 -10 30 -28 34 l-25 6 25 15 c14 8
39 21 55 30 57 28 18 40 -76 24 -41 -8 -63 10 -27 20 48 13 97 38 102 52 7 17
-20 29 -37 16 -6 -6 -34 -18 -61 -27 -49 -16 -49 -16 -83 10 -43 33 -95 54
-133 54 -16 0 -30 5 -30 10 0 6 -6 10 -14 10 -23 0 -25 12 -14 62 36 156 -165
270 -295 168 -25 -20 -26 -20 -32 0 -5 14 3 28 29 50 44 39 59 84 54 162 l-3
62 55 33 c99 60 118 60 211 0z m-1028 -225 c-4 -19 -29 -32 -61 -32 -16 0 -1
33 31 68 21 22 22 22 28 3 4 -10 5 -28 2 -39z m660 -99 c3 -15 3 -32 0 -39
-10 -28 -91 -44 -123 -24 -17 11 -13 15 50 59 56 38 66 38 73 4z m-3761 -290
c57 -125 57 -126 -6 -156 -67 -32 -78 -47 -112 -159 -22 -72 -31 -89 -44 -85
-27 7 -48 -10 -55 -45 -4 -17 -16 -45 -26 -62 -13 -21 -19 -50 -19 -92 0 -60
-1 -63 -46 -108 -26 -25 -49 -44 -52 -41 -3 3 18 58 46 122 58 136 61 144 46
150 -6 2 -28 -35 -49 -84 -60 -140 -78 -171 -174 -301 -50 -67 -91 -129 -91
-136 0 -19 -64 -74 -95 -82 -33 -8 -45 2 -45 37 0 42 37 109 119 218 88 115
124 175 119 198 -6 33 -31 18 -67 -42 -20 -33 -68 -100 -106 -150 -38 -49 -82
-119 -98 -155 -16 -36 -35 -68 -42 -73 -7 -4 -53 -39 -102 -77 -48 -39 -126
-89 -172 -112 -82 -42 -86 -43 -211 -48 -121 -5 -129 -6 -148 -30 -29 -35
-106 -176 -127 -231 -17 -47 -79 -118 -91 -106 -4 3 0 28 9 54 9 27 12 52 7
57 -13 13 -42 -40 -47 -88 -5 -37 -2 -46 15 -55 16 -9 27 -5 61 19 34 25 51
51 95 143 30 61 67 132 82 156 l29 44 110 2 c163 3 246 39 420 179 l80 64 13
-24 c28 -53 95 -59 164 -15 26 16 52 39 58 50 6 12 15 21 21 21 5 0 23 10 40
22 26 19 31 20 39 8 13 -20 11 -25 -40 -85 -92 -107 -168 -142 -249 -114 -39
14 -51 5 -28 -19 12 -11 40 -19 80 -22 45 -4 63 -9 65 -20 3 -20 -84 -76 -253
-165 -160 -84 -245 -140 -308 -200 -46 -44 -57 -73 -30 -82 7 -3 20 5 30 17
41 49 168 134 324 218 91 49 186 103 210 120 24 18 64 41 88 53 54 26 196 67
271 79 30 4 88 20 129 34 92 32 105 32 119 1 14 -30 40 -32 76 -4 24 19 27 19
48 5 12 -9 32 -16 43 -16 29 0 84 36 96 64 7 14 22 27 35 30 19 5 32 -2 63
-34 34 -36 43 -40 84 -40 26 0 47 -4 47 -9 0 -6 -27 -20 -60 -32 -69 -25 -76
-32 -54 -50 14 -11 18 -11 28 1 17 23 103 24 111 2 3 -9 12 -25 19 -35 12 -15
16 -16 41 -3 15 8 53 15 84 15 31 0 68 4 82 10 15 5 31 6 40 0 23 -15 103 -10
191 11 46 11 95 20 111 20 18 0 27 5 27 16 0 14 -7 15 -40 10 -32 -5 -40 -3
-40 9 0 10 -10 15 -34 15 -49 0 -52 15 -7 29 51 15 68 14 74 -3 4 -11 16 -13
41 -9 28 4 41 0 65 -20 34 -28 57 -35 145 -41 38 -3 72 0 93 9 18 8 77 26 130
40 67 18 136 46 222 93 70 37 145 75 169 84 l42 18 0 -25 c0 -14 0 -28 0 -32
0 -5 -34 -20 -77 -35 -43 -15 -79 -31 -81 -37 -4 -11 48 2 121 30 38 15 53 17
69 8 12 -6 38 -8 60 -5 68 11 62 -5 -16 -42 -42 -19 -76 -41 -76 -49 0 -17 -4
-18 76 22 38 19 73 35 77 35 17 0 -37 -59 -64 -71 -30 -12 -99 -82 -99 -99 0
-6 15 -10 34 -10 26 0 60 18 140 72 58 39 109 68 113 64 5 -4 -16 -29 -45 -54
-29 -26 -52 -50 -52 -54 0 -18 27 -6 71 32 26 22 54 40 62 40 19 0 37 -51 37
-105 0 -34 -5 -45 -30 -63 -16 -12 -34 -22 -40 -22 -6 0 -32 -20 -58 -44 -26
-24 -93 -73 -149 -110 -57 -36 -148 -95 -202 -130 -55 -36 -101 -62 -104 -60
-6 6 -280 -116 -288 -128 -4 -6 -37 -16 -75 -24 -38 -8 -86 -24 -108 -35 -21
-11 -40 -18 -42 -16 -3 2 35 26 83 53 124 69 322 203 581 392 203 150 241 182
212 182 -6 0 -113 -75 -238 -167 -422 -310 -644 -445 -752 -459 l-25 -3 23 19
c12 10 98 62 190 115 201 116 221 130 205 146 -8 8 -22 4 -55 -18 -23 -17
-104 -65 -178 -108 -74 -43 -163 -97 -196 -120 -34 -23 -98 -57 -143 -75 -78
-31 -132 -69 -142 -99 -4 -12 -10 -10 -27 7 l-21 21 42 24 c23 13 89 50 146
81 110 60 171 102 171 117 0 16 -20 9 -67 -25 -62 -44 -308 -176 -328 -176 -9
0 -26 -7 -39 -15 -21 -14 -24 -14 -29 -1 -6 16 21 35 118 81 42 19 54 29 42
32 -10 3 -60 -16 -110 -41 -51 -25 -129 -57 -174 -71 -45 -14 -95 -37 -111
-50 -61 -51 -192 -87 -192 -52 0 19 57 51 155 87 109 39 127 49 120 59 -7 12
-200 -63 -260 -100 l-50 -32 -270 6 c-378 9 -629 47 -705 108 -42 34 -111 65
-165 75 -22 4 -53 17 -68 30 -16 13 -41 24 -55 24 -15 0 -61 21 -102 46 -92
56 -115 54 -201 -10 -85 -64 -95 -61 -119 29 -22 86 -39 92 -119 48 l-49 -27
-39 27 c-21 15 -42 27 -45 27 -4 0 -24 16 -45 35 -43 41 -155 98 -224 115 -25
6 -100 19 -165 28 l-119 17 -23 58 c-27 68 -41 181 -23 191 6 4 29 -10 53 -33
23 -23 45 -41 50 -41 8 0 13 60 9 117 -4 62 129 192 238 233 29 12 56 19 58
16 9 -9 -19 -77 -53 -126 -39 -57 -43 -80 -14 -80 26 0 92 100 110 167 7 26
21 73 31 103 l18 55 153 -3 c137 -3 159 -1 211 18 62 23 86 50 63 70 -11 9
-22 7 -48 -6 -56 -29 -98 -34 -245 -27 l-142 6 -16 40 c-17 43 -11 57 29 57
45 0 164 38 371 117 248 95 290 118 303 165 10 38 22 39 92 13 67 -25 156 -15
297 36 164 58 251 84 258 77 4 -3 -3 -37 -15 -76 -20 -65 -24 -71 -63 -87 -23
-10 -46 -21 -50 -23 -5 -2 1 15 13 38 12 23 20 49 18 58 -2 11 -31 -17 -84
-83 -91 -112 -109 -130 -141 -139 -35 -11 -28 10 22 63 42 44 58 81 36 81 -15
0 -101 -100 -107 -125 -5 -18 -40 -45 -60 -45 -9 0 14 36 51 80 25 30 33 46
26 53 -13 13 -61 -30 -91 -78 -17 -28 -31 -34 -147 -63 -70 -18 -142 -32 -159
-32 -17 0 -63 -11 -102 -25 -39 -14 -92 -25 -118 -25 -32 0 -44 -4 -42 -12 8
-24 92 -20 169 7 87 30 122 33 117 8 -2 -13 -15 -19 -45 -21 -42 -3 -70 -23
-58 -42 10 -17 78 -11 120 11 22 11 94 34 160 50 65 17 135 37 153 45 19 8 46
14 61 14 48 1 155 36 205 68 38 25 53 29 68 21 21 -11 38 -4 38 16 0 8 30 44
66 82 37 37 74 78 82 92 15 22 16 22 23 5 12 -31 10 -39 -17 -79 -26 -39 -26
-65 1 -65 17 0 61 63 70 101 4 15 26 41 51 60 46 34 55 45 29 35 -30 -11 -14
24 25 55 50 41 60 67 31 90 -20 17 -20 17 52 82 72 64 130 148 113 164 -4 4
-15 -2 -25 -15 -52 -74 -93 -122 -101 -122 -18 0 -10 35 11 48 18 11 20 20 15
52 -7 47 13 75 69 95 66 23 69 21 107 -62z m2126 -23 c6 -17 31 -43 56 -61 30
-22 54 -50 70 -84 14 -28 59 -88 100 -132 42 -44 72 -84 68 -88 -16 -16 -74
-34 -135 -40 l-65 -7 -6 41 c-3 23 -9 59 -12 81 -3 22 -17 56 -30 75 -19 28
-22 40 -14 55 23 43 2 82 -51 95 -32 8 -65 58 -46 73 12 9 35 20 49 21 3 1 11
-12 16 -29z m-2383 -90 c4 -6 -7 -31 -24 -57 -17 -26 -31 -51 -31 -56 0 -6 -9
-2 -19 7 -34 31 -54 16 -96 -70 -64 -129 -154 -222 -111 -115 12 31 13 47 5
68 -20 52 12 167 57 204 27 22 207 38 219 19z m359 -98 c13 -45 13 -48 -9 -72
-13 -14 -46 -68 -75 -120 -29 -52 -54 -97 -56 -99 -2 -2 -16 1 -30 8 l-27 12
21 22 c11 12 40 54 64 92 25 39 52 76 61 84 19 15 22 37 6 47 -16 9 -61 -39
-115 -122 -26 -41 -50 -74 -54 -74 -3 0 10 48 29 108 l36 107 60 31 c33 18 63
30 67 27 4 -2 14 -25 22 -51z m1626 49 c0 -16 -46 -65 -79 -84 -45 -26 -40 -2
11 50 40 41 68 55 68 34z m56 -58 c-31 -30 -56 -59 -56 -66 0 -7 -18 -20 -39
-30 -21 -9 -85 -58 -142 -108 -65 -57 -105 -85 -107 -77 -3 17 161 187 229
238 25 19 56 49 70 67 24 32 48 42 83 34 15 -3 8 -14 -38 -58z m278 51 c19 -7
21 -24 3 -24 -7 0 -55 -20 -106 -45 -85 -41 -171 -70 -171 -58 0 3 27 31 61
64 59 56 62 58 122 62 34 2 65 4 69 5 3 1 13 -1 22 -4z m-474 -121 c0 -10
-132 -143 -142 -143 -15 0 -8 27 14 55 21 27 107 94 121 95 4 0 7 -3 7 -7z
m-1450 -66 c0 -17 -15 -48 -39 -80 -49 -66 -81 -129 -81 -162 0 -39 25 -30 39
14 12 43 87 161 102 161 51 0 -86 -209 -258 -395 -155 -167 -197 -202 -382
-319 -22 -14 69 93 109 128 103 91 222 248 203 267 -7 7 -25 -14 -54 -58 -51
-78 -171 -203 -177 -185 -5 17 33 74 104 152 78 86 110 138 95 153 -14 14 -14
126 -1 147 9 13 11 13 20 0 5 -8 7 -27 4 -42 -5 -23 -2 -28 14 -28 19 0 40 21
68 66 8 13 15 16 23 9 7 -8 6 -19 -5 -40 -57 -106 -66 -127 -55 -138 11 -11
41 7 41 24 0 4 23 50 51 101 29 51 71 128 95 171 55 100 65 112 75 95 5 -7 9
-26 9 -41z m4040 -9 c0 -17 -13 -30 -52 -50 -28 -15 -53 -26 -55 -25 -1 2 -4
14 -5 27 -2 18 6 29 37 47 52 29 75 30 75 1z m-1629 -58 c38 -12 69 -24 69
-28 0 -4 -36 -31 -80 -60 -88 -58 -101 -78 -43 -69 l36 6 -26 -27 c-45 -47
-30 -57 18 -13 53 49 78 55 65 14 -5 -16 -11 -40 -13 -56 -2 -15 -21 -46 -44
-70 -46 -47 -63 -76 -63 -105 0 -29 -196 -152 -252 -158 -44 -5 -40 26 8 69
70 62 74 112 25 301 -12 44 -21 91 -21 106 0 27 3 28 76 39 79 12 134 32 155
57 14 17 9 18 90 -6z m-2337 -121 c3 -17 6 -66 6 -108 l0 -76 -58 -30 c-40
-21 -63 -41 -77 -67 -11 -21 -26 -38 -32 -38 -20 0 -142 -120 -169 -166 -36
-60 -51 -71 -134 -90 -56 -12 -81 -24 -101 -45 -20 -22 -53 -37 -125 -58 -84
-25 -95 -27 -74 -11 14 11 41 27 60 36 89 43 251 162 335 248 155 157 250 269
301 354 27 45 52 82 55 82 4 0 9 -14 13 -31z m2466 -71 c0 -38 -8 -52 -34 -61
-16 -7 -18 -4 -11 30 12 65 45 87 45 31z m778 -110 c-5 -14 -260 -188 -267
-182 -10 9 41 52 144 120 112 75 130 83 123 62z m-808 -39 c-49 -44 -98 -74
-108 -65 -3 4 16 29 43 56 38 39 56 50 80 50 l30 -1 -45 -40z m1170 32 c0 -20
-64 -88 -103 -108 -23 -12 -44 -20 -46 -18 -5 6 128 135 140 135 5 0 9 -4 9
-9z m-754 -16 c-10 -8 -53 -29 -95 -46 -151 -62 -191 -90 -191 -133 0 -16 -12
-31 -39 -49 -22 -14 -89 -82 -150 -150 -60 -68 -125 -135 -143 -149 -44 -34
-114 -69 -122 -61 -3 4 -6 25 -6 48 0 29 -8 54 -26 80 -21 31 -23 40 -12 50 7
6 62 51 121 99 59 48 115 99 123 112 10 14 26 24 39 24 23 0 55 23 55 40 0 5
24 27 53 48 28 21 58 51 66 65 12 22 21 27 53 27 21 0 38 -4 38 -10 0 -5 -21
-21 -47 -36 -60 -34 -84 -54 -78 -65 6 -8 49 16 122 70 49 35 99 48 198 50 54
0 58 -1 41 -14z m674 7 c0 -5 -22 -28 -49 -50 -27 -23 -52 -51 -56 -61 -4 -14
-14 -19 -37 -18 -47 3 -44 21 7 51 25 15 52 38 61 51 14 22 30 31 62 34 6 0
12 -3 12 -7z m-318 -72 c-41 -39 -79 -70 -86 -70 -7 0 -37 -13 -66 -29 -102
-56 -72 -18 46 58 66 43 125 85 133 94 7 9 21 17 30 17 10 -1 -13 -28 -57 -70z
m194 35 c-41 -37 -62 -43 -68 -23 -6 17 -59 -25 -80 -65 -16 -28 -16 -33 -3
-54 15 -22 14 -23 -14 -23 -16 0 -39 8 -52 19 l-23 18 73 69 c57 53 84 72 120
80 83 21 91 17 47 -21z m-3363 -38 c24 -76 22 -119 -7 -146 -18 -17 -24 -36
-29 -88 -8 -105 -64 -157 -130 -120 -30 18 -31 18 -58 -2 -36 -27 -45 -26 -53
4 -8 32 -31 32 -127 -1 -82 -28 -169 -45 -169 -33 0 13 18 20 98 40 42 11 83
25 91 33 9 7 34 17 56 20 53 10 116 47 157 94 18 21 41 42 51 45 24 9 17 30
-12 37 l-23 5 21 27 c26 32 26 37 1 46 -19 7 -19 9 -4 30 17 24 79 61 105 62
10 0 21 -18 32 -53z m2232 -107 c-12 -20 -239 -200 -251 -200 -29 0 -23 23 15
60 23 22 47 40 54 40 6 1 48 25 92 55 80 53 102 64 90 45z m-2462 -55 c18 -13
16 -15 -24 -44 -23 -17 -45 -31 -50 -31 -4 0 -16 -3 -26 -7 -17 -7 -17 -6 1
22 17 28 65 75 76 75 3 -1 13 -7 23 -15z m2127 -21 c0 -14 -9 -28 -22 -35 -28
-15 -126 -38 -133 -31 -3 3 -5 20 -5 37 0 40 23 52 102 52 54 1 58 -1 58 -23z
m-1859 -69 c3 -14 -2 -21 -18 -23 -21 -3 -23 1 -23 41 0 24 3 47 7 51 8 8 28
-33 34 -69z m399 51 c0 -30 -11 -43 -34 -39 -12 3 -40 -3 -61 -11 -21 -9 -41
-14 -43 -11 -10 10 34 46 74 60 50 18 64 18 64 1z m2379 -1 l108 7 22 -28 22
-27 36 17 c25 12 39 14 46 7 16 -16 30 -13 23 5 -10 26 3 34 32 18 17 -9 58
-14 115 -14 79 0 89 -2 94 -19 3 -12 11 -17 19 -14 8 3 18 -5 25 -21 14 -30
37 -33 100 -11 51 19 85 13 94 -15 8 -25 13 -25 81 5 67 30 94 32 94 8 0 -12
-27 -33 -80 -61 -57 -31 -80 -49 -80 -63 0 -30 38 -23 110 20 71 43 73 42 91
-22 11 -41 5 -77 -14 -77 -19 0 -87 -60 -87 -76 0 -8 9 -14 21 -14 13 0 19 -5
16 -12 -2 -7 -19 -48 -38 -90 -29 -69 -38 -79 -81 -103 -26 -14 -61 -37 -77
-51 -16 -13 -36 -24 -44 -24 -8 0 -49 -18 -91 -40 -42 -22 -89 -40 -107 -40
-23 0 -30 -4 -26 -14 7 -18 -53 -32 -208 -46 -152 -14 -152 -14 -159 14 -9 37
-56 51 -119 37 -29 -6 -65 -20 -82 -31 -46 -30 -145 -23 -145 11 0 6 14 24 31
40 26 24 34 27 51 18 48 -26 210 22 293 86 41 31 63 79 45 100 -23 27 -66 16
-208 -54 -134 -67 -140 -69 -146 -48 -3 12 -2 24 2 28 4 3 77 39 162 78 233
109 370 191 319 191 -5 0 -120 -54 -253 -120 -134 -66 -252 -120 -263 -120
-11 0 -32 -9 -46 -20 -14 -11 -35 -20 -48 -20 -12 0 -65 -14 -117 -30 -94 -31
-126 -34 -120 -15 2 5 70 36 152 67 242 94 417 192 531 299 52 49 58 59 46 73
-16 19 -36 10 -95 -44 -107 -98 -292 -198 -531 -288 -118 -44 -321 -100 -330
-90 -2 2 -2 13 1 24 3 13 26 28 67 43 182 70 417 198 590 322 118 84 237 186
237 204 0 24 -21 28 -45 9 -13 -11 -61 -50 -107 -88 -116 -95 -279 -201 -438
-284 -150 -78 -287 -138 -296 -129 -7 7 14 76 28 94 5 7 48 30 95 53 93 44
157 99 274 235 38 45 92 98 120 119 48 37 52 38 88 27 49 -14 51 -14 51 4 0
13 4 14 21 5 14 -8 56 -9 128 -5z m-1604 -54 c-3 -6 -38 -26 -78 -46 -39 -21
-79 -43 -88 -51 -21 -19 -89 -18 -117 2 -32 22 -27 29 21 26 31 -2 67 8 137
37 94 39 137 50 125 32z m734 -84 c-35 -25 -113 -67 -117 -63 -2 3 7 19 22 36
14 17 26 36 26 42 0 6 7 8 15 5 8 -4 17 -1 21 4 4 7 12 5 22 -5 9 -8 14 -17
11 -19z m-129 -77 c0 -13 -89 -70 -109 -70 -11 0 -10 5 5 21 38 43 104 74 104
49z m135 -331 c0 -8 -25 -23 -56 -34 -83 -30 -112 -52 -105 -80 5 -18 1 -24
-17 -29 -13 -3 -37 -16 -53 -28 -19 -15 -58 -28 -119 -39 -49 -9 -91 -15 -93
-14 -2 2 56 41 129 87 73 45 165 104 203 130 63 43 72 46 91 34 11 -7 20 -20
20 -27z m959 -14 c-8 -21 -99 -76 -158 -97 -28 -9 -69 -17 -91 -17 -38 0 -34
3 85 64 125 64 175 79 164 50z m761 -95 c51 -138 64 -199 73 -357 9 -145 13
-167 38 -220 15 -32 29 -71 31 -87 2 -16 9 -39 17 -51 20 -31 0 -145 -43 -234
-23 -49 -128 -150 -192 -186 -39 -22 -57 -39 -64 -61 -5 -17 -22 -45 -37 -63
-16 -18 -28 -37 -28 -42 0 -17 -83 -6 -134 17 -27 13 -92 30 -145 40 -53 9
-102 24 -110 31 -8 8 -29 13 -50 12 -20 -1 -60 1 -89 5 -82 12 -87 26 -88 271
0 110 -1 216 -2 236 -2 43 -30 83 -52 75 -23 -9 -19 -482 4 -545 9 -24 21 -50
26 -56 6 -7 6 -24 -1 -46 -6 -19 -15 -198 -20 -399 -5 -201 -10 -372 -11 -380
-5 -55 4 -73 63 -130 34 -32 58 -63 55 -68 -3 -5 -37 -12 -76 -16 -127 -11
-170 -44 -170 -126 0 -25 9 -65 20 -89 21 -45 26 -91 11 -91 -23 0 -102 -86
-134 -147 -53 -102 -92 -150 -125 -157 -17 -4 -55 -34 -93 -72 -35 -36 -75
-70 -89 -76 -50 -20 -114 -10 -226 33 -85 33 -124 43 -177 44 -65 2 -70 4
-103 41 l-35 38 21 61 c12 33 27 83 32 110 6 28 16 62 24 76 7 14 18 48 24 74
6 27 15 54 21 61 6 8 44 10 122 7 127 -5 160 5 165 49 2 15 -3 40 -12 55 -25
49 -108 135 -145 150 -49 21 -251 30 -291 13 -61 -25 -125 -114 -232 -324
-117 -229 -183 -333 -228 -359 -17 -11 -33 -17 -35 -15 -1 1 -8 27 -14 56 -18
86 -14 228 9 313 29 106 47 393 32 520 -16 137 -73 345 -135 495 -91 220 -98
241 -107 306 -5 35 -10 110 -11 168 -2 97 -1 109 21 137 36 49 68 57 230 58
137 0 148 1 200 27 95 47 112 114 65 255 -14 42 -23 78 -21 81 14 14 172 -39
368 -122 25 -11 39 -12 44 -5 10 17 -3 24 -135 78 -129 53 -220 81 -265 81
-14 0 -40 9 -58 20 -64 39 -157 61 -288 67 -113 5 -126 8 -126 24 0 27 90 56
200 65 28 2 91 17 141 34 94 31 346 77 467 85 38 2 94 15 130 28 35 14 90 28
123 32 66 7 167 31 323 77 98 28 104 29 116 12 11 -15 10 -23 -5 -48 -41 -67
-12 -126 70 -146 28 -6 59 -9 70 -6 63 18 59 20 59 -32 0 -35 8 -65 31 -108
26 -50 31 -70 31 -131 0 -94 25 -122 82 -92 16 8 19 17 14 40 -5 26 -3 29 19
29 26 0 65 42 65 71 0 26 -9 24 -42 -8 -41 -39 -34 -10 8 37 34 38 36 42 20
59 -9 9 -16 23 -16 29 0 20 -42 13 -76 -13 l-33 -26 -21 40 c-11 22 -20 52
-20 66 0 23 3 25 46 25 76 0 364 30 429 45 35 8 91 12 133 10 60 -4 74 -2 79
11 3 9 38 36 76 61 63 40 69 47 54 58 -24 17 -22 21 26 49 52 32 66 30 82 -14z
m-1465 -10 c0 -14 -37 -27 -115 -41 -61 -10 -87 -8 -72 7 8 8 137 42 165 43
12 1 22 -4 22 -9z m-307 -60 l42 -1 -30 -16 c-30 -16 -165 -32 -165 -19 0 11
84 45 98 40 8 -2 32 -4 55 -4z m2012 -182 l70 -13 -50 -6 c-27 -4 -69 -8 -92
-8 -40 -1 -43 1 -43 25 0 22 3 25 23 20 12 -3 54 -12 92 -18z m-3095 -76 c0
-21 -26 -42 -51 -42 -17 0 -45 -6 -62 -14 -37 -17 -164 -29 -150 -15 5 5 45
25 89 43 56 24 93 33 126 32 27 0 48 -2 48 -4z m3061 -22 c13 -36 57 -64 124
-81 28 -6 54 -16 60 -20 14 -13 -4 -11 -64 7 -81 24 -141 2 -141 -52 0 -13 6
-33 12 -44 14 -22 -1 -48 -21 -36 -19 12 -41 109 -41 183 l0 73 31 0 c24 0 32
-6 40 -30z m-5120 4 c70 -20 151 -71 147 -93 -5 -25 -85 -59 -194 -82 -54 -12
-103 -25 -108 -30 -30 -28 190 22 269 61 l61 29 74 -19 c161 -41 277 -52 575
-56 169 -3 305 -9 326 -16 28 -8 50 -7 90 3 30 7 83 14 119 14 134 4 286 24
350 46 58 21 83 24 235 24 164 0 172 1 229 28 49 22 72 27 140 27 108 0 197
-14 261 -40 52 -21 53 -23 81 -97 15 -42 29 -98 32 -125 4 -41 1 -53 -19 -74
-38 -40 -115 -57 -223 -49 -107 8 -191 -5 -231 -37 -26 -21 -28 -21 -81 -4
-30 9 -54 21 -54 27 0 5 4 9 10 9 5 0 9 9 7 21 -2 17 8 25 48 41 58 23 59 23
51 37 -5 7 -25 4 -59 -10 -29 -11 -66 -25 -83 -30 -18 -5 -37 -16 -44 -24 -14
-17 -95 -21 -85 -5 4 6 24 18 46 27 51 20 50 33 -3 33 -46 0 -168 -51 -168
-70 0 -5 -16 -10 -36 -10 -50 0 -39 21 22 43 60 22 72 33 56 49 -9 9 -45 1
-160 -37 -81 -28 -150 -54 -154 -59 -8 -12 -175 -21 -223 -12 -19 4 -35 11
-35 16 0 5 34 26 75 46 71 35 89 54 65 69 -14 8 -138 -49 -168 -78 -15 -13
-51 -27 -103 -37 -80 -16 -126 -11 -78 9 103 42 119 51 119 65 0 20 8 21 -80
-15 -41 -16 -88 -43 -105 -58 -35 -34 -67 -45 -101 -37 -31 8 -24 21 26 46 54
28 73 49 59 66 -9 11 -19 9 -61 -12 -28 -14 -61 -36 -74 -50 -47 -46 -95 -56
-144 -30 l-24 14 46 23 c44 21 71 49 47 49 -13 0 -89 -39 -109 -55 -24 -20
-158 -27 -401 -19 l-227 7 20 33 c19 33 19 34 1 34 -18 0 -192 -67 -203 -78
-3 -3 7 -2 23 2 31 7 34 0 12 -32 l-16 -22 85 3 c46 1 88 -2 92 -6 5 -5 -4
-32 -20 -61 l-29 -54 -71 2 c-65 1 -71 -1 -71 -19 0 -17 8 -20 58 -23 l59 -3
-7 -82 c-3 -45 -14 -108 -23 -139 l-16 -57 -52 -11 c-68 -14 -85 -33 -46 -49
16 -7 51 -15 78 -19 73 -11 63 -30 -29 -57 -42 -12 -80 -25 -84 -29 -17 -17
12 -16 82 4 81 23 94 20 95 -22 0 -9 3 -23 6 -32 5 -12 -5 -17 -45 -22 -46 -6
-70 -18 -59 -29 2 -3 28 -1 56 4 29 4 55 5 57 0 23 -36 24 -174 1 -196 -3 -3
-72 -14 -153 -25 -146 -18 -162 -22 -150 -35 6 -6 172 9 260 23 32 6 37 4 37
-13 0 -12 -6 -25 -13 -31 -17 -14 -97 -32 -184 -40 -51 -5 -68 -11 -68 -22 0
-18 58 -16 170 5 39 7 71 12 73 10 1 -1 -2 -14 -7 -29 -8 -19 -17 -26 -38 -26
-16 0 -44 -4 -63 -9 -19 -6 -54 -15 -78 -21 -23 -6 -40 -15 -37 -19 3 -5 38
-1 77 10 40 10 86 19 102 19 26 0 28 -2 21 -27 -3 -16 -10 -31 -14 -35 -3 -4
-75 -13 -159 -20 -151 -13 -203 -30 -108 -36 27 -2 94 1 150 7 55 6 104 7 107
3 7 -8 -15 -125 -31 -159 -8 -20 -17 -23 -70 -23 -33 0 -60 4 -60 10 0 6 14
10 31 10 60 0 91 37 50 60 -11 5 -33 10 -50 10 -50 0 -35 17 20 22 27 3 56 11
62 17 9 10 0 11 -43 6 -61 -7 -110 -23 -110 -35 0 -9 51 -27 90 -32 40 -5 29
-22 -18 -29 -45 -6 -69 -26 -52 -43 5 -5 29 -12 52 -16 l43 -6 -45 -12 c-80
-21 -95 -27 -93 -37 2 -14 22 -23 66 -30 36 -6 53 -25 22 -25 -20 0 -89 -29
-84 -35 7 -6 101 23 113 35 16 16 -14 40 -49 40 -55 0 -48 13 17 32 80 22 88
19 78 -26 -12 -53 -44 -126 -55 -126 -5 0 -29 -9 -52 -20 -31 -14 -41 -23 -37
-34 3 -9 13 -16 21 -16 24 0 4 -20 -38 -37 -41 -16 -55 -39 -16 -27 34 10 75
33 82 45 4 5 0 18 -10 28 -15 18 -14 19 16 30 18 6 34 11 37 11 9 0 -11 -57
-44 -127 -19 -39 -37 -94 -41 -121 -8 -71 -13 -75 -79 -76 -39 -1 -59 -5 -62
-15 -4 -11 10 -13 76 -9 65 4 82 2 87 -10 3 -8 -1 -22 -10 -32 -22 -24 -18
-70 9 -111 14 -20 28 -49 32 -64 l7 -28 -87 5 c-72 5 -88 3 -93 -9 -8 -21 15
-33 67 -34 25 0 55 -4 68 -7 20 -6 21 -9 10 -24 -19 -26 -99 -26 -183 0 -69
22 -182 31 -224 17 -34 -10 -26 21 20 87 50 72 63 112 48 156 -6 18 -14 65
-19 105 -53 466 -52 444 -40 602 30 384 48 471 130 635 83 165 110 299 126
618 4 78 11 145 16 148 5 4 16 -3 24 -15 20 -28 75 -42 119 -30 52 15 162 65
170 79 4 6 2 17 -4 23 -7 7 -32 0 -89 -26 -100 -47 -146 -49 -170 -7 -18 32
-38 37 -66 17 -14 -11 -28 -11 -58 -3 -36 10 -39 13 -34 39 7 37 -11 43 -69
24 -49 -17 -61 -6 -17 17 15 8 36 24 47 37 l20 22 -31 -6 c-17 -3 -54 -19 -81
-35 -60 -36 -115 -55 -145 -50 -21 3 -20 7 22 49 25 24 63 59 85 76 22 17 37
35 33 39 -9 9 -107 -66 -149 -114 -41 -46 -55 -27 -29 40 62 163 182 215 541
233 69 4 141 10 160 15 49 12 50 12 110 -6z m2169 -54 c0 -14 -97 -40 -144
-39 -39 1 -39 2 19 14 33 8 71 18 85 24 32 13 40 13 40 1z m-600 -10 c0 -5 -7
-10 -16 -10 -9 0 -28 -8 -42 -18 -26 -18 -104 -42 -138 -42 -37 0 10 31 85 54
83 27 111 31 111 16z m-2090 -287 c0 -42 -12 -63 -29 -54 -9 5 -34 12 -55 15
-22 4 -42 8 -44 11 -10 10 12 25 36 25 15 0 34 5 42 10 24 16 50 12 50 -7z
m1207 -180 c13 -19 19 -53 21 -124 5 -118 -9 -187 -84 -423 -108 -337 -114
-428 -48 -716 45 -202 57 -385 29 -460 -23 -63 -23 -75 0 -75 14 0 24 13 38
50 41 110 33 240 -31 520 -58 256 -53 326 53 665 30 96 61 205 70 242 18 79
23 200 12 278 l-8 55 48 11 c38 9 52 9 69 -2 14 -10 46 -14 95 -12 116 3 132
-9 119 -92 l-5 -35 -67 -5 c-79 -6 -102 -21 -67 -43 13 -9 41 -19 61 -22 53
-10 37 -25 -26 -25 -29 0 -61 -6 -71 -14 -17 -12 -18 -16 -5 -31 12 -14 25
-16 70 -12 l55 6 -43 -19 c-50 -23 -51 -43 -4 -48 41 -4 31 -22 -11 -22 -32 0
-77 -23 -77 -39 0 -12 48 -31 78 -31 40 0 48 -10 55 -65 4 -27 9 -66 13 -86
l6 -37 -66 -4 c-36 -2 -71 -9 -78 -16 -17 -17 -3 -26 20 -13 12 6 46 11 76 11
53 0 56 -1 56 -25 0 -26 -5 -28 -89 -40 -24 -3 -53 -12 -64 -20 -19 -13 -18
-14 17 -29 21 -9 68 -18 104 -22 71 -7 92 -21 92 -59 0 -12 -9 -30 -20 -40
-17 -16 -32 -17 -130 -10 -97 6 -111 5 -116 -10 -12 -29 13 -38 120 -43 58 -2
103 -9 100 -13 -3 -5 -24 -9 -48 -9 -30 0 -48 -6 -60 -19 -17 -19 -17 -20 3
-30 11 -6 35 -11 53 -11 18 0 40 -5 48 -10 11 -7 7 -10 -18 -10 -18 0 -49 -7
-70 -16 -35 -15 -36 -16 -18 -30 11 -8 25 -14 30 -14 6 0 3 -5 -6 -11 -10 -5
-63 -13 -118 -16 -85 -5 -100 -9 -98 -22 3 -13 18 -16 83 -17 44 0 105 -4 135
-9 46 -7 51 -10 30 -16 -14 -4 -42 -7 -63 -8 -56 -1 -80 -17 -67 -41 8 -15 21
-20 49 -20 l38 0 -11 -35 c-11 -34 -11 -34 -76 -37 -53 -2 -65 -6 -68 -21 -3
-17 3 -18 76 -15 81 3 112 -8 89 -31 -8 -8 -5 -11 11 -11 24 0 25 -1 16 -25
-5 -13 -15 -15 -53 -9 -25 4 -54 11 -64 16 -15 8 -18 6 -15 -9 2 -13 18 -21
56 -28 59 -12 59 -25 0 -25 -26 0 -41 -5 -45 -15 -7 -21 4 -32 19 -17 17 17
72 16 65 -1 -3 -8 -8 -60 -12 -115 l-8 -102 -47 0 c-58 0 -80 -7 -80 -26 0
-11 17 -14 70 -14 56 0 70 -3 70 -15 0 -11 -13 -15 -52 -15 -61 0 -98 -8 -98
-21 0 -5 15 -9 33 -10 46 -1 86 -15 67 -22 -65 -27 -211 -35 -255 -15 -20 9
-56 9 -158 0 -108 -10 -175 -10 -367 3 -129 8 -264 15 -299 15 l-63 0 7 37
c14 77 8 74 183 68 406 -13 602 -15 602 -7 0 18 -54 22 -370 27 -173 3 -329 8
-347 11 l-31 5 28 77 c16 42 35 93 44 114 8 20 22 65 30 100 8 34 27 110 41
168 14 58 34 141 45 185 20 87 37 153 51 201 15 52 10 135 -15 237 -28 110
-35 237 -17 282 7 16 15 74 18 130 4 88 9 109 41 175 l37 75 282 -3 283 -3 17
-26z m1339 23 c22 -3 45 -1 50 4 6 6 25 4 49 -5 22 -8 48 -14 58 -15 9 0 17
-4 17 -9 0 -21 -36 -34 -117 -42 -117 -12 -133 -17 -133 -35 0 -13 8 -15 43
-11 23 4 67 9 98 13 l56 6 6 -63 c4 -34 7 -92 7 -128 1 -60 4 -85 25 -177 7
-31 6 -32 -46 -49 -55 -18 -88 -40 -76 -51 3 -3 36 5 73 20 37 14 68 25 69 23
24 -56 126 -320 130 -338 6 -25 4 -26 -61 -37 -37 -6 -74 -18 -83 -26 -18 -18
-7 -34 12 -18 7 6 33 14 57 17 25 4 55 8 66 10 19 4 24 -3 38 -53 35 -127 55
-332 40 -410 -5 -25 -13 -32 -38 -38 -52 -11 -98 -33 -91 -44 4 -6 15 -5 33 4
15 7 42 16 60 19 l32 7 0 -65 c0 -35 -5 -86 -10 -112 l-11 -48 -69 -17 c-38
-10 -76 -15 -85 -12 -8 3 -15 2 -15 -4 0 -20 34 -22 92 -6 32 9 61 14 64 12 3
-3 0 -44 -6 -90 -9 -65 -9 -104 1 -164 7 -43 13 -97 13 -119 l1 -40 -53 -10
c-29 -6 -54 -15 -55 -20 -3 -16 57 -17 101 -2 23 8 42 11 42 6 0 -4 -18 -14
-40 -20 -37 -11 -68 -34 -59 -43 2 -3 29 8 59 22 39 19 56 34 58 49 2 13 9 23
16 23 24 0 81 52 124 113 24 34 91 156 149 270 86 169 116 219 162 267 l57 60
64 0 c97 -1 191 -17 219 -38 35 -26 111 -119 111 -137 0 -7 -14 -16 -30 -20
-37 -8 -200 4 -200 15 0 16 71 41 106 38 46 -4 57 18 18 32 -50 19 -99 3 -159
-53 -61 -56 -94 -106 -119 -182 -10 -27 -37 -90 -62 -140 -43 -89 -84 -221
-84 -276 0 -15 -4 -31 -10 -34 -5 -3 -10 -19 -10 -35 0 -16 -5 -32 -11 -36
-19 -12 -69 -97 -69 -118 0 -12 9 -36 21 -55 18 -30 22 -32 35 -19 13 13 13
18 0 42 -16 32 -13 48 21 93 37 51 47 43 38 -30 -15 -131 -14 -132 160 -121
215 14 294 12 340 -10 25 -12 65 -21 105 -22 36 -1 106 -14 155 -29 67 -20
113 -27 180 -28 103 -1 141 11 203 67 22 20 43 36 47 36 4 0 25 14 46 31 22
17 85 62 142 100 60 41 104 78 107 91 7 29 136 116 211 142 61 21 64 24 63 53
-2 30 -1 31 36 26 21 -3 48 0 61 8 13 7 48 13 77 14 51 1 100 25 110 53 6 18
-59 52 -101 52 -49 0 -73 -13 -93 -51 -15 -30 -18 -31 -63 -25 -27 3 -61 1
-79 -5 -30 -10 -31 -12 -17 -32 21 -30 20 -32 -30 -51 -25 -10 -80 -42 -123
-71 -69 -47 -86 -54 -146 -60 -60 -7 -67 -10 -63 -26 4 -17 -1 -19 -40 -19
-57 0 -89 -16 -72 -36 6 -8 24 -14 40 -14 59 0 25 -32 -46 -45 -22 -4 -49 -12
-59 -18 -18 -9 -18 -11 -3 -22 15 -11 16 -14 2 -25 -9 -7 -13 -20 -10 -30 7
-22 -28 -54 -90 -81 -43 -19 -60 -21 -134 -16 -48 4 -120 17 -161 30 l-75 23
-13 62 c-14 65 -34 79 -40 29 -2 -15 -5 -27 -7 -27 -2 0 -21 12 -42 26 -41 28
-54 19 -32 -22 20 -38 2 -45 -75 -27 -63 14 -84 14 -244 -2 -110 -10 -178 -13
-184 -7 -6 6 -6 24 1 48 14 49 14 100 1 125 -6 10 -7 19 -2 19 10 0 52 72 52
89 0 6 7 28 15 48 l15 37 38 -35 c20 -20 47 -42 58 -50 106 -71 152 -105 166
-123 13 -17 20 -18 29 -9 17 17 -8 44 -86 95 l-60 40 45 -6 c25 -3 86 -22 135
-42 114 -46 202 -55 258 -26 l38 20 34 -36 c25 -28 37 -34 45 -26 9 9 4 20
-18 45 l-30 34 40 47 40 48 66 -2 c79 -2 200 11 208 23 3 5 -6 14 -20 20 -19
9 -39 9 -82 0 -32 -6 -66 -11 -77 -11 -20 0 -20 0 0 23 12 12 38 51 58 87 21
36 49 82 63 103 27 41 86 82 102 72 6 -4 32 -10 58 -14 38 -5 47 -10 47 -26 0
-16 -13 -24 -60 -38 -129 -39 -150 -57 -121 -102 24 -36 49 -33 41 4 -6 28 -4
30 37 41 91 24 122 37 141 62 17 23 18 29 6 53 -16 33 -31 42 -81 50 -34 5
-38 9 -38 34 0 16 -11 59 -25 96 -23 61 -24 69 -11 90 15 23 30 27 148 40 46
5 62 12 78 32 11 14 20 32 20 40 0 29 -33 79 -82 125 l-50 47 7 77 c4 43 10
217 15 388 4 171 11 319 15 329 5 11 18 17 41 17 26 0 36 -6 46 -27 7 -16 29
-36 49 -46 41 -20 153 -36 252 -37 60 0 72 -3 105 -30 21 -16 75 -45 122 -63
47 -18 99 -41 115 -50 l30 -16 -28 -1 c-15 0 -75 20 -131 45 -57 25 -109 45
-115 45 -23 0 81 -108 120 -125 26 -12 39 -25 39 -38 0 -18 5 -19 53 -14 45 4
57 1 87 -21 19 -14 38 -30 41 -35 11 -15 31 -240 27 -307 -3 -63 -4 -65 -48
-98 -80 -60 -83 -116 -10 -167 50 -35 53 -46 26 -86 -34 -51 -37 -76 -15 -131
27 -69 25 -76 -18 -80 -43 -3 -54 -31 -15 -36 26 -4 29 -20 5 -37 -24 -18 -8
-36 23 -25 39 15 72 12 83 -8 5 -9 16 -43 24 -75 l15 -58 -69 7 c-94 9 -92
-11 3 -23 88 -10 100 -28 25 -37 -94 -12 -109 -44 -32 -70 l37 -13 -51 -7
c-28 -4 -51 -11 -51 -15 0 -14 -88 -41 -153 -48 -32 -3 -60 -10 -63 -14 -9
-15 77 -9 149 10 58 15 69 15 79 3 15 -18 -2 -29 -57 -37 -79 -12 -95 -17 -95
-29 0 -7 5 -17 11 -23 13 -13 9 -13 -139 -33 l-83 -11 -40 36 c-22 20 -51 40
-64 45 -29 11 -94 -5 -102 -25 -3 -8 -30 -29 -60 -46 -31 -18 -81 -53 -112
-79 -31 -26 -71 -55 -88 -64 -17 -8 -40 -26 -50 -38 -10 -13 -30 -28 -44 -35
-15 -6 -63 -43 -106 -82 -44 -39 -93 -75 -108 -81 -23 -9 -57 -4 -189 29 -152
38 -177 41 -428 56 -252 14 -453 41 -501 66 -12 7 -16 17 -12 30 10 29 -36 91
-100 134 -55 38 -65 59 -65 130 0 37 -22 52 -41 29 -7 -9 -9 -31 -5 -62 l6
-49 -37 -16 c-21 -9 -78 -21 -128 -28 -49 -6 -123 -20 -164 -30 -116 -30 -128
-3 -58 131 41 80 42 84 42 178 -1 114 -6 132 -115 387 -69 160 -149 399 -181
540 -17 76 -12 241 12 404 25 173 22 249 -15 444 -23 120 -37 170 -71 249 -5
14 0 17 32 20 46 4 193 0 249 -6z m-962 -181 c-7 -16 -20 -18 -76 -9 -58 10
-45 24 22 24 49 0 58 -3 54 -15z m3867 -124 c-12 -21 -110 -85 -118 -77 -12
12 9 38 54 66 55 35 79 39 64 11z m-3903 -107 c-3 -15 -11 -18 -43 -16 -64 6
-77 20 -27 28 23 4 45 11 48 16 10 15 26 -7 22 -28z m3422 -39 c40 -8 79 -19
89 -25 42 -25 -212 0 -259 25 -23 13 -21 14 37 15 34 0 94 -7 133 -15z m-4500
-20 c0 -22 -4 -25 -32 -24 -31 1 -89 15 -78 19 10 3 95 27 103 29 4 0 7 -10 7
-24z m1118 -282 c3 -20 -1 -23 -27 -23 -37 0 -134 20 -128 27 8 7 99 21 127
20 18 -2 26 -9 28 -24z m5652 -230 c0 -5 -20 -30 -44 -58 l-43 -49 -177 34
c-97 19 -176 38 -176 43 0 32 132 25 216 -12 57 -25 82 -22 144 19 43 28 80
39 80 23z m-5622 -27 c4 -16 0 -18 -28 -12 -18 3 -51 6 -73 6 -54 0 -36 17 23
23 66 6 74 4 78 -17z m5160 -8 c-2 -6 -28 -20 -58 -32 -51 -19 -138 -91 -126
-103 7 -7 -82 -123 -95 -123 -16 0 -9 93 10 136 17 38 25 44 87 64 38 13 87
33 109 46 43 25 79 31 73 12z m-5177 -111 c-5 -26 -10 -50 -13 -52 -3 -3 -38
0 -79 6 l-73 13 44 10 c51 12 63 37 28 53 -21 9 -17 11 32 20 30 5 58 7 62 4
3 -3 3 -27 -1 -54z m5237 35 c2 -13 -9 -48 -25 -78 -26 -52 -30 -55 -58 -49
-16 3 -39 14 -49 25 -20 19 -20 19 18 9 53 -15 63 -8 63 45 1 45 -5 53 -39 47
-13 -2 -9 17 5 23 6 3 28 4 47 3 28 -2 36 -6 38 -25z m40 -69 c9 -17 -5 -80
-18 -85 -14 -5 -50 12 -50 24 0 18 38 78 50 78 5 0 13 -8 18 -17z m117 -75
c61 -30 78 -49 55 -63 -5 -3 -21 2 -36 12 -25 16 -27 16 -39 0 -16 -22 -24
-21 -58 6 -25 20 -27 25 -18 50 6 15 15 27 21 27 5 0 39 -14 75 -32z m-5421
-20 c-9 -53 -11 -55 -48 -60 -40 -4 -40 -4 -25 23 14 27 -4 49 -45 51 -26 1
14 7 106 16 14 2 16 -4 12 -30z m1927 -571 c-5 -18 -18 -58 -29 -90 -12 -32
-22 -67 -22 -78 0 -11 -8 -29 -19 -40 -10 -11 -26 -47 -35 -80 -17 -58 -36
-71 -36 -25 0 80 103 346 134 346 11 0 12 -8 7 -33z m1806 -78 c22 -8 24 -12
13 -19 -20 -13 -100 -12 -100 0 0 6 10 15 23 20 29 12 31 12 64 -1z m-4521
-16 c113 -4 198 -2 253 6 65 10 90 10 112 1 40 -17 36 -26 -12 -33 -22 -3 -49
-13 -59 -22 -16 -14 -63 -16 -398 -19 -210 -1 -385 0 -390 3 -17 11 -32 50
-25 67 6 15 21 16 177 10 94 -3 248 -9 342 -13z m684 -11 c0 -14 -97 -32 -170
-32 -88 0 -105 20 -18 21 35 1 77 5 93 9 42 11 95 12 95 2z m20 -58 c0 -8 13
-27 29 -42 20 -19 31 -41 35 -73 9 -62 1 -79 -38 -79 -50 0 -106 -12 -106 -22
0 -5 26 -6 63 -2 80 8 68 -9 -23 -32 -137 -35 -283 16 -336 118 -20 39 -19
124 3 132 9 4 73 4 142 1 95 -5 137 -3 171 8 49 15 60 14 60 -9z m4103 -36
c-18 -18 -24 -18 -62 -7 -51 15 -53 29 -3 30 20 0 46 4 57 8 27 11 32 -7 8
-31z m-4623 13 c64 -6 65 -7 68 -37 l3 -31 -62 -7 c-34 -3 -161 -6 -283 -6
-122 0 -255 -5 -296 -10 -71 -10 -76 -9 -92 11 -20 24 -23 55 -7 65 27 16 538
28 669 15z m4047 -261 c44 -43 53 -73 53 -177 0 -58 -3 -66 -37 -103 -34 -38
-35 -42 -20 -58 16 -15 19 -15 44 5 61 45 81 127 63 253 l-5 35 115 16 c63 9
117 15 119 13 2 -2 -10 -15 -27 -29 -17 -14 -41 -42 -53 -61 -20 -33 -21 -44
-16 -139 l7 -103 -73 -13 c-84 -15 -261 -16 -297 -2 l-25 10 32 16 c17 9 49
37 72 63 33 38 41 54 41 85 0 39 -45 146 -76 180 -9 10 -14 25 -11 34 11 28
53 17 94 -25z m-4978 -30 c111 -27 125 -35 86 -50 -37 -14 -84 -8 -195 27 -72
22 -81 28 -60 34 43 12 82 10 169 -11z m4859 -15 c37 -57 39 -55 -98 -74 -41
-5 -76 -8 -79 -6 -8 9 25 39 83 77 33 21 62 38 65 38 3 0 16 -16 29 -35z m-65
-116 c-53 -25 -141 -41 -196 -37 l-42 3 29 20 c22 14 54 22 115 26 143 9 141
10 94 -12z"/>
<path d="M4139 4516 c-135 -47 -248 -127 -323 -227 -25 -34 -46 -65 -46 -70 0
-21 21 -6 55 41 78 106 201 192 338 235 39 13 73 28 75 34 6 17 -27 13 -99
-13z"/>
<path d="M3910 4513 c-14 -9 -38 -28 -54 -42 -29 -27 -176 -206 -176 -216 0
-18 25 4 75 68 78 97 134 156 168 173 15 8 27 19 27 24 0 14 -12 12 -40 -7z"/>
<path d="M3690 4383 c-139 -150 -215 -284 -227 -399 -8 -77 15 -72 62 14 21
37 55 88 76 114 22 26 39 51 39 57 0 37 -55 -25 -121 -136 -35 -59 -40 -63
-34 -33 22 110 90 223 218 357 81 86 100 113 78 113 -5 0 -46 -39 -91 -87z"/>
<path d="M6950 4115 c-7 -8 -36 -26 -66 -40 -53 -25 -70 -45 -39 -45 19 0 94
37 118 58 18 16 23 42 8 42 -5 0 -14 -7 -21 -15z"/>
<path d="M5818 3818 c7 -9 9 -23 6 -33 -6 -14 -3 -16 17 -10 28 8 55 32 47 40
-3 3 -23 9 -44 12 -34 6 -37 4 -26 -9z"/>
<path d="M5330 3291 c-41 -9 -72 -24 -90 -45 -16 -20 -15 -20 63 4 35 11 70
27 77 35 14 17 9 18 -50 6z"/>
<path d="M7320 3371 c0 -120 11 -157 30 -106 6 14 10 71 10 126 0 92 -1 99
-20 99 -19 0 -20 -7 -20 -119z"/>
<path d="M4000 3231 c-8 -5 -69 -28 -135 -51 -66 -22 -124 -45 -129 -50 -25
-25 12 -18 135 25 148 52 169 61 169 75 0 12 -20 12 -40 1z"/>
<path d="M3700 3174 c-52 -17 -94 -35 -92 -40 2 -5 13 -8 25 -6 33 5 159 50
169 60 21 21 -11 16 -102 -14z"/>
<path d="M5640 2960 c-19 -11 -56 -26 -82 -35 -30 -10 -48 -23 -48 -32 0 -12
7 -14 29 -10 50 10 171 69 171 83 0 19 -29 17 -70 -6z"/>
<path d="M6685 2948 c-65 -23 -71 -25 -63 -33 7 -7 136 33 143 45 9 14 -12 11
-80 -12z"/>
<path d="M6400 2946 c-43 -11 -63 -37 -41 -50 6 -4 36 0 68 8 32 8 71 12 86 9
26 -5 28 -3 25 18 -3 21 -9 24 -48 26 -25 1 -65 -4 -90 -11z"/>
<path d="M3937 2794 c-14 -15 -6 -23 33 -34 28 -8 46 -8 60 0 27 15 25 30 -4
30 -13 0 -36 3 -52 6 -16 3 -32 2 -37 -2z"/>
<path d="M3863 2053 c-21 -8 -15 -30 10 -37 38 -10 76 -7 115 11 l37 16 -30 7
c-35 9 -114 11 -132 3z"/>
<path d="M3804 1969 c-11 -18 17 -29 78 -29 65 0 82 13 36 29 -40 14 -105 14
-114 0z"/>
<path d="M5100 2753 c-14 -3 -31 -10 -39 -16 -12 -10 -9 -13 15 -18 45 -10 76
-10 69 0 -3 5 0 13 6 17 8 4 7 9 -2 15 -8 5 -16 8 -19 7 -3 0 -16 -3 -30 -5z"/>
<path d="M4993 1987 c-71 -10 -90 -21 -57 -34 27 -10 224 19 224 34 0 15 -56
15 -167 0z"/>
<path d="M6165 2590 c-3 -5 4 -15 16 -24 21 -14 21 -15 -20 -35 -22 -12 -41
-28 -41 -36 0 -10 16 -5 56 18 32 18 57 36 58 41 1 13 -62 47 -69 36z"/>
<path d="M6248 2129 c-32 -4 -68 -14 -80 -21 -22 -11 -20 -13 27 -20 75 -11
115 -1 115 28 0 13 -1 23 -2 23 -2 -1 -29 -5 -60 -10z"/>
<path d="M8717 2098 c-30 -24 15 -60 91 -73 46 -7 47 -8 31 -36 -15 -28 9 -53
67 -69 l44 -13 -25 -33 c-26 -34 -31 -49 -16 -58 12 -8 74 82 68 98 -3 8 -28
21 -56 31 -53 17 -68 29 -51 40 17 10 11 44 -9 54 -10 6 -37 13 -60 17 -54 9
-69 29 -15 22 21 -4 47 -9 57 -13 28 -12 21 20 -8 33 -34 16 -97 15 -118 0z"/>
<path d="M6197 1963 c-24 -3 -37 -9 -34 -16 3 -8 32 -12 90 -12 81 0 109 7 94
22 -9 8 -100 12 -150 6z"/>
<path d="M6340 1840 c-8 -5 -43 -10 -78 -10 -47 0 -62 -3 -59 -12 3 -9 25 -13
69 -12 65 2 108 16 108 34 0 13 -21 13 -40 0z"/>
<path d="M6335 1783 c-33 -8 -70 -16 -82 -19 -13 -2 -23 -11 -23 -19 0 -16 8
-15 134 14 38 9 71 22 74 29 5 15 -26 14 -103 -5z"/>
<path d="M6323 1692 c-57 -2 -73 -6 -73 -18 0 -12 15 -14 82 -12 49 2 83 7 85
14 5 16 -12 19 -94 16z"/>
<path d="M6252 1602 c-28 -8 -30 -27 -2 -26 11 0 52 1 90 2 55 2 70 5 70 17 0
12 -14 15 -67 14 -38 -1 -78 -4 -91 -7z"/>
<path d="M6317 1531 c-37 -3 -67 -10 -67 -16 1 -10 84 -10 148 1 36 6 45 25
10 22 -13 -1 -53 -4 -91 -7z"/>
<path d="M6450 1503 c-25 -7 -82 -20 -128 -27 -81 -13 -101 -20 -89 -32 12
-12 252 37 270 55 16 16 -8 18 -53 4z"/>
<path d="M8823 1465 c-18 -8 -33 -19 -33 -24 0 -30 107 -43 130 -16 6 8 9 23
5 35 -8 24 -53 27 -102 5z"/>
<path d="M6348 1297 c-68 -9 -83 -19 -51 -31 22 -9 153 4 153 15 0 19 -39 25
-102 16z"/>
<path d="M8381 1296 c-23 -27 3 -46 63 -46 32 0 83 -12 136 -32 47 -17 119
-40 161 -51 67 -18 80 -19 122 -8 78 22 148 110 102 128 -10 3 -29 -8 -50 -30
-61 -63 -104 -61 -310 13 -109 39 -204 50 -224 26z"/>
<path d="M6281 1206 c-26 -31 74 -37 110 -6 l24 19 -61 1 c-41 0 -65 -5 -73
-14z"/>
<path d="M8280 1201 c0 -16 81 -80 117 -92 41 -13 63 -6 63 20 0 24 -41 48
-115 67 -60 16 -65 17 -65 5z"/>
<path d="M6433 593 c-29 -2 -53 -9 -53 -15 0 -7 17 -8 50 -4 32 4 50 3 50 -4
0 -5 -4 -10 -10 -10 -5 0 -10 -4 -10 -9 0 -8 78 4 87 13 2 2 1 11 -3 20 -4 10
-16 15 -33 14 -14 -1 -50 -3 -78 -5z"/>
<path d="M7391 9806 c-17 -20 -3 -64 25 -82 30 -20 62 -10 70 22 8 31 -1 41
-21 24 -23 -19 -48 -4 -43 25 6 28 -12 34 -31 11z"/>
<path d="M7160 9762 c0 -40 86 -92 151 -92 60 0 82 56 38 96 -17 15 -19 15
-19 1 0 -9 5 -19 10 -22 21 -13 10 -43 -17 -49 -53 -12 -143 33 -143 71 0 7
-4 13 -10 13 -5 0 -10 -8 -10 -18z"/>
<path d="M7601 9767 c-30 -15 -24 -33 9 -30 124 11 181 -5 286 -80 36 -26 54
-33 64 -26 21 13 -34 58 -134 109 -66 34 -88 40 -140 40 -33 0 -72 -6 -85 -13z"/>
<path d="M7552 9636 c-41 -40 -62 -68 -58 -75 6 -8 26 5 66 43 31 30 69 58 83
61 45 12 88 -19 160 -114 63 -83 148 -161 177 -161 22 0 5 28 -39 61 -25 19
-74 72 -111 119 -78 100 -118 130 -173 130 -35 0 -47 -7 -105 -64z"/>
<path d="M7254 9569 c-78 -111 -121 -201 -134 -284 -27 -172 -33 -194 -96
-325 -35 -74 -67 -150 -70 -167 -8 -38 -14 -40 -39 -13 -29 32 -154 114 -255
168 -113 60 -249 115 -421 170 -148 47 -174 52 -174 34 0 -9 70 -37 194 -78
279 -91 488 -197 638 -322 53 -45 60 -65 66 -187 6 -120 20 -161 110 -318 86
-150 101 -197 94 -295 -8 -114 -47 -218 -184 -490 -68 -133 -121 -247 -118
-252 4 -6 12 -10 18 -10 17 0 262 488 293 585 32 95 43 241 24 301 -7 21 -47
102 -90 179 -43 77 -83 156 -88 175 -6 19 -16 100 -22 180 -11 144 -11 146 13
210 14 36 45 106 69 155 25 50 51 115 58 145 9 38 24 67 49 95 20 22 53 69 74
105 20 36 44 75 53 87 15 21 15 23 0 29 -20 8 -43 -19 -92 -108 -40 -72 -74
-113 -74 -87 1 65 62 197 145 311 25 34 45 68 45 75 0 33 -33 6 -86 -68z"/>
<path d="M7653 9603 c-22 -8 -14 -37 33 -124 103 -186 164 -313 164 -340 0
-18 -7 -32 -20 -39 -52 -28 -64 -126 -29 -234 23 -71 47 -100 73 -90 21 8 20
38 -4 109 -23 67 -26 123 -7 149 18 25 28 10 61 -89 33 -102 33 -128 0 -150
-23 -14 -26 -22 -21 -54 2 -20 25 -70 50 -111 51 -86 90 -226 152 -555 20
-104 38 -199 41 -211 3 -12 1 -25 -5 -28 -16 -10 -13 -46 4 -53 24 -9 55 26
55 61 0 60 -69 412 -121 616 -16 63 -29 131 -29 151 0 20 -8 69 -19 110 -10
41 -21 95 -24 121 -4 25 -15 72 -27 105 -11 32 -24 82 -30 112 -6 30 -21 77
-34 105 -13 28 -35 76 -49 106 -39 85 -181 333 -192 336 -5 1 -16 0 -22 -3z"/>
<path d="M11402 9524 c-27 -19 -29 -65 -3 -88 17 -16 18 -16 14 8 -3 14 0 40
6 57 14 39 11 43 -17 23z"/>
<path d="M12430 9480 c4 -24 6 -60 2 -80 -5 -32 -4 -34 11 -21 24 19 22 92 -2
122 l-19 24 8 -45z"/>
<path d="M12320 9475 c0 -8 9 -19 19 -25 11 -5 21 -20 23 -32 3 -21 4 -21 20
-5 17 17 15 39 -5 65 -13 17 -57 15 -57 -3z"/>
<path d="M5863 9264 c-9 -25 15 -34 92 -34 154 0 333 -37 714 -146 161 -46
304 -84 317 -84 29 0 34 36 7 44 -632 186 -855 236 -1049 236 -59 0 -76 -3
-81 -16z"/>
<path d="M8325 9207 c-85 -29 -143 -74 -164 -129 -23 -60 12 -183 67 -241 43
-45 78 -59 150 -58 84 0 154 33 272 128 179 142 187 147 298 163 76 11 83 14
80 34 -3 18 -8 21 -48 18 -25 -2 -64 -8 -88 -13 -55 -12 -98 -1 -227 59 -95
44 -105 47 -200 49 -63 2 -115 -2 -140 -10z m95 -46 c0 -4 -21 -16 -47 -26
-27 -10 -74 -31 -106 -47 -52 -26 -57 -27 -47 -9 14 28 89 70 141 80 61 12 59
12 59 2z"/>
<path d="M12457 9173 c-11 -10 -8 -35 3 -28 5 3 17 -3 27 -15 35 -40 58 -16
27 28 -15 21 -44 29 -57 15z"/>
<path d="M12415 9051 c-7 -24 29 -100 39 -83 4 6 0 25 -9 42 -14 26 -14 31 -1
36 24 9 54 -14 67 -51 13 -36 29 -47 29 -20 0 25 -28 73 -49 85 -32 17 -69 12
-76 -9z"/>
<path d="M7166 9038 c-3 -7 -7 -42 -10 -78 -6 -63 3 -98 20 -87 14 8 17 177 4
177 -6 0 -12 -6 -14 -12z"/>
<path d="M12200 8995 c0 -16 72 -155 80 -155 16 0 11 18 -7 29 -14 8 -15 13
-6 19 16 10 -21 88 -48 103 -11 5 -19 7 -19 4z"/>
<path d="M9136 8882 c-3 -5 14 -19 37 -32 23 -13 63 -44 90 -69 26 -24 50 -41
53 -38 12 12 -38 67 -97 106 -64 43 -74 47 -83 33z"/>
<path d="M12360 8844 c-30 -20 -67 -40 -82 -46 -16 -5 -25 -14 -22 -19 6 -11
104 39 149 76 44 36 18 30 -45 -11z"/>
<path d="M7153 8814 c-3 -9 -1 -65 6 -125 26 -239 117 -447 260 -590 64 -63
174 -139 203 -139 39 0 15 30 -68 85 -195 130 -334 389 -351 655 -6 95 -15
130 -34 130 -5 0 -12 -7 -16 -16z"/>
<path d="M5780 8644 c-26 -61 -26 -74 5 -74 22 0 24 2 14 19 -15 23 -5 51 20
58 17 4 18 8 8 24 -17 28 -24 24 -47 -27z"/>
<path d="M8378 8613 c-36 -39 -53 -77 -83 -180 -22 -73 -28 -128 -40 -323 -18
-301 -32 -353 -105 -390 -77 -40 -147 -16 -215 73 -35 46 -57 58 -70 37 -16
-26 85 -138 147 -165 75 -30 157 -8 215 58 50 57 67 144 78 412 10 231 43 368
107 441 49 56 17 91 -34 37z"/>
<path d="M9000 8513 c-33 -13 -90 -78 -90 -104 0 -69 140 -119 191 -68 23 23
17 36 -21 41 -19 2 -25 9 -25 28 0 20 -6 26 -30 30 -53 9 -8 23 51 15 45 -5
55 -4 60 10 4 9 0 23 -7 30 -15 15 -105 28 -129 18z"/>
<path d="M6230 8415 c0 -3 11 -10 24 -15 15 -5 33 -27 46 -57 24 -52 40 -43
19 10 -18 46 -39 67 -66 67 -12 0 -23 -2 -23 -5z"/>
<path d="M5166 8123 c26 -58 49 -91 59 -82 2 3 -4 23 -15 44 -11 22 -20 52
-20 67 0 23 -4 28 -24 28 l-25 0 25 -57z"/>
<path d="M6537 8102 c-25 -27 -22 -45 6 -36 12 5 32 8 45 7 18 -1 22 4 20 21
-4 28 -48 34 -71 8z"/>
<path d="M4447 8082 c2 -10 -9 -34 -26 -56 -34 -42 -37 -56 -19 -74 19 -19 29
-14 22 13 -4 18 1 33 20 56 28 33 35 79 12 79 -9 0 -12 -7 -9 -18z"/>
<path d="M5343 8044 c-3 -8 -2 -19 3 -23 17 -16 350 -113 466 -136 217 -43
318 -114 318 -221 l0 -38 -68 71 c-72 74 -151 121 -212 125 -29 3 -36 -1 -38
-18 -2 -17 6 -23 57 -37 48 -14 73 -29 124 -77 36 -33 84 -85 108 -116 l43
-56 15 29 c10 19 16 55 16 109 0 69 -3 85 -25 117 -52 77 -161 131 -325 162
-96 17 -168 37 -337 91 -122 38 -136 40 -145 18z"/>
<path d="M4526 8025 c-22 -33 -21 -35 14 -25 16 5 38 6 50 3 25 -7 26 8 2 30
-26 24 -47 21 -66 -8z"/>
<path d="M4120 7686 c-12 -31 2 -80 23 -84 14 -3 16 1 7 22 -6 16 -6 35 0 50
5 13 6 27 3 30 -12 12 -24 6 -33 -18z"/>
<path d="M5441 7652 c-12 -49 -7 -82 12 -82 6 0 8 3 5 6 -4 3 1 26 9 50 15 43
13 74 -5 74 -4 0 -14 -22 -21 -48z"/>
<path d="M8818 7496 c-43 -26 -90 -67 -83 -74 7 -7 88 44 114 72 29 31 19 32
-31 2z"/>
<path d="M8958 7404 c-16 -8 -28 -19 -28 -24 0 -14 74 -12 88 2 35 35 -8 51
-60 22z"/>
<path d="M8180 7349 c-92 -60 -197 -152 -181 -157 6 -2 29 12 50 31 22 19 80
63 130 97 51 33 89 65 86 70 -4 6 -7 10 -8 9 -1 0 -36 -23 -77 -50z"/>
<path d="M8149 7263 c-54 -50 -89 -102 -89 -131 0 -14 189 8 244 28 73 28 167
110 125 110 -6 0 -25 -14 -42 -32 -43 -42 -97 -64 -190 -77 -114 -16 -110 -16
-92 18 8 17 40 51 70 77 30 26 55 51 55 56 0 18 -22 5 -81 -49z"/>
<path d="M6633 7272 c-21 -13 -145 -218 -204 -337 -32 -66 -72 -161 -88 -212
-55 -170 -79 -354 -47 -366 23 -9 33 13 41 92 8 85 45 240 77 321 36 93 134
280 198 378 33 51 60 97 60 101 0 15 -25 30 -37 23z"/>
<path d="M8485 7246 c-36 -16 -59 -41 -50 -56 9 -14 28 -13 61 5 22 12 58 15
149 13 132 -2 165 4 165 31 0 17 -13 18 -147 19 -102 1 -157 -3 -178 -12z"/>
<path d="M8325 6860 c-46 -47 -80 -58 -147 -50 -27 4 -51 3 -54 -1 -10 -16 29
-39 66 -39 21 0 42 -4 45 -10 3 -5 2 -10 -3 -10 -11 0 -25 -30 -18 -38 9 -9
76 40 104 76 27 35 62 94 62 107 0 14 -19 2 -55 -35z"/>
<path d="M3790 6556 c0 -8 -12 -28 -26 -45 -23 -28 -27 -61 -7 -61 11 0 53 75
53 94 0 8 -4 18 -10 21 -5 3 -10 0 -10 -9z"/>
<path d="M3675 6309 c-58 -130 -185 -556 -307 -1029 -41 -160 -58 -317 -44
-395 10 -54 45 -85 96 -85 33 0 40 3 40 20 0 15 -7 20 -28 20 -89 0 -93 152
-13 459 132 505 253 906 301 1002 25 48 25 69 1 69 -13 0 -26 -18 -46 -61z"/>
<path d="M3766 5878 c-72 -124 -124 -294 -98 -320 13 -13 14 -10 32 77 6 33
34 107 62 164 32 67 46 107 40 113 -7 7 -19 -5 -36 -34z"/>
<path d="M11559 5366 c-65 -43 -134 -74 -204 -90 -98 -22 -180 -65 -254 -133
l-64 -57 -106 -2 c-157 -4 -196 -20 -464 -194 -80 -52 -146 -101 -147 -107 -1
-29 45 -8 191 88 213 141 318 187 409 177 l31 -3 -53 -40 c-29 -22 -69 -47
-88 -57 -56 -26 -125 -92 -117 -111 10 -27 35 -20 89 23 28 22 57 40 65 40 9
0 36 -15 62 -33 25 -19 98 -62 161 -96 63 -35 129 -74 147 -87 38 -29 63 -31
63 -5 0 22 -57 61 -216 147 -55 30 -117 69 -138 86 -42 34 -40 41 28 87 65 45
92 44 255 -10 80 -26 149 -45 153 -43 28 18 -3 36 -134 80 -79 25 -145 49
-148 51 -9 9 93 92 150 122 31 17 87 38 125 46 l67 16 34 -40 c44 -50 107 -74
239 -90 76 -10 112 -19 151 -41 51 -28 64 -29 64 -4 0 31 -85 64 -212 83 -135
20 -188 39 -213 77 -15 23 -14 25 17 43 86 50 108 66 108 77 0 23 -16 23 -51
0z"/>
<path d="M5653 5363 c-3 -10 -31 -81 -60 -158 -66 -170 -94 -278 -129 -493
-19 -121 -23 -167 -15 -175 21 -21 32 10 61 184 37 223 55 289 129 483 33 87
58 162 55 167 -9 15 -34 10 -41 -8z"/>
<path d="M6794 4457 c-13 -34 -9 -71 9 -75 15 -3 17 1 11 22 -5 21 -3 25 10
20 24 -9 20 23 -4 36 -16 8 -22 8 -26 -3z"/>
<path d="M10574 4130 c-182 -46 -311 -107 -275 -130 9 -5 41 5 86 27 40 18
132 49 206 67 96 25 135 39 137 50 5 22 -22 20 -154 -14z"/>
<path d="M10959 3441 c-29 -24 -19 -39 16 -23 14 7 37 12 51 12 36 0 25 24
-13 28 -18 2 -39 -4 -54 -17z"/>
<path d="M3133 3406 c-44 -37 -58 -77 -40 -112 8 -16 18 -47 22 -69 8 -47 30
-75 58 -75 14 0 17 4 12 18 -14 32 -18 72 -6 72 6 0 8 11 4 30 -3 20 1 45 12
69 34 77 -2 117 -62 67z"/>
<path d="M2721 3108 c-48 -65 -172 -289 -165 -300 14 -22 34 1 83 93 29 56 75
133 102 172 44 66 51 87 29 87 -5 0 -27 -24 -49 -52z"/>
<path d="M9740 3065 c0 -26 47 -48 91 -42 38 5 79 30 79 49 0 4 -38 8 -85 8
-68 0 -85 -3 -85 -15z"/>
<path d="M9553 2633 c-30 -11 -11 -52 30 -66 12 -5 17 -1 17 12 0 25 -32 60
-47 54z"/>
<path d="M9880 2243 c-76 -73 -107 -110 -100 -117 7 -7 38 17 97 76 49 46 100
93 116 103 29 19 36 45 12 45 -8 0 -65 -48 -125 -107z"/>
<path d="M10352 2260 c-7 -11 -28 -28 -48 -37 -32 -16 -36 -16 -64 0 -35 21
-51 5 -24 -24 33 -36 123 -18 158 33 9 12 16 28 16 35 0 20 -24 15 -38 -7z"/>
<path d="M3060 1631 c-46 -15 -230 -111 -230 -121 0 -15 2 -14 109 40 55 27
120 54 145 61 25 6 46 15 46 20 0 11 -35 10 -70 0z"/>
<path d="M2706 1448 c-40 -20 -55 -33 -48 -40 12 -12 128 41 125 57 -3 16 -16
13 -77 -17z"/>
<path d="M2465 1361 c-56 -20 -110 -43 -121 -51 -30 -22 -54 -61 -54 -87 0
-33 17 -28 25 7 10 44 56 77 150 106 46 14 92 32 101 38 36 27 -5 21 -101 -13z"/>
<path d="M2700 1193 c-351 -21 -708 -53 -1040 -93 -303 -37 -1025 -142 -1034
-151 -5 -5 -6 -12 -2 -16 3 -4 203 21 444 55 861 122 1397 174 1915 185 57 1
97 6 97 12 0 10 -260 15 -380 8z"/>
<path d="M2681 1100 c-382 -16 -757 -57 -1221 -135 -262 -44 -281 -48 -278
-60 2 -5 8 -9 13 -9 6 1 120 20 255 43 589 99 1038 141 1513 141 151 0 237 4
237 10 0 6 -29 10 -68 10 -38 0 -109 2 -158 4 -49 2 -181 0 -293 -4z"/>
<path d="M435 925 c-38 -7 -147 -23 -242 -35 -95 -13 -178 -27 -184 -31 -38
-23 23 -21 218 6 284 41 293 43 293 60 0 8 -3 15 -7 14 -5 -1 -39 -7 -78 -14z"/>
<path d="M11387 898 c-27 -10 -33 -37 -6 -29 8 2 51 6 97 9 60 3 82 8 82 18 0
17 -129 18 -173 2z"/>
<path d="M11615 901 c-3 -5 -2 -12 2 -14 17 -10 243 -12 243 -2 1 6 -16 13
-37 17 -57 10 -201 9 -208 -1z"/>
<path d="M2340 873 c-52 -5 -500 -63 -537 -69 -18 -3 -33 -10 -33 -15 0 -7 15
-9 38 -5 20 3 150 19 287 36 319 40 315 39 315 50 0 6 -8 9 -17 8 -10 0 -34
-3 -53 -5z"/>
<path d="M5873 823 c-33 -13 -6 -23 60 -22 69 1 71 1 42 14 -30 14 -79 18
-102 8z"/>
<path d="M2137 746 c-44 -6 -76 -14 -73 -17 7 -6 59 -3 128 9 73 13 27 19 -55
8z"/>
<path d="M2960 733 c-109 -8 -367 -34 -384 -39 -10 -4 -14 -10 -10 -14 5 -5
61 -2 124 5 174 20 395 35 524 35 71 0 116 4 116 10 0 9 -256 12 -370 3z"/>
<path d="M12247 694 c-122 -44 -176 -48 -592 -49 -333 0 -400 -2 -400 -14 0
-22 727 -28 851 -7 112 20 199 49 199 66 0 19 -15 20 -58 4z"/>
<path d="M9985 679 c-285 -15 -683 -55 -699 -70 -21 -19 7 -20 131 -5 163 20
453 43 656 52 123 5 157 10 157 20 0 16 -6 16 -245 3z"/>
<path d="M3005 659 c-135 -21 -250 -41 -254 -45 -16 -16 31 -14 176 7 104 15
168 29 171 37 4 14 -6 14 -93 1z"/>
<path d="M11137 643 c-4 -3 -7 -15 -7 -25 0 -21 24 -24 65 -8 23 9 25 13 15
25 -13 15 -61 21 -73 8z"/>
<path d="M2592 600 c-57 -6 -82 -15 -71 -24 8 -6 149 18 149 26 0 4 -3 7 -7 7
-5 -1 -36 -5 -71 -9z"/>
<path d="M5598 583 c-21 -2 -38 -9 -38 -15 0 -7 18 -9 53 -4 28 3 143 6 255 6
128 0 202 4 202 10 0 10 -385 12 -472 3z"/>
<path d="M10787 499 c-29 -17 -9 -29 49 -29 55 0 69 11 35 30 -25 13 -61 12
-84 -1z"/>
<path d="M10447 493 c-17 -16 -3 -23 49 -23 49 0 55 2 44 15 -12 15 -81 21
-93 8z"/>
<path d="M5114 471 c-14 -14 7 -19 99 -23 138 -8 483 4 477 16 -5 9 -567 16
-576 7z"/>
<path d="M9449 440 c-272 -27 -279 -29 -279 -52 0 -18 5 -20 38 -15 20 4 118
13 217 22 218 19 227 21 223 42 -2 9 -7 17 -13 18 -5 1 -89 -6 -186 -15z"/>
<path d="M9730 448 c-24 -10 -23 -11 22 -20 48 -8 98 2 98 22 0 13 -88 12
-120 -2z"/>
<path d="M6530 320 c-48 -6 -70 -15 -70 -30 0 -11 101 -1 114 10 18 17 -1 25
-44 20z"/>
<path d="M4626 40 c-92 -4 -131 -9 -134 -18 -3 -10 35 -12 178 -11 130 1 180
5 177 13 -5 16 -76 22 -221 16z"/>
<path d="M4913 43 c-7 -2 -13 -11 -13 -19 0 -10 14 -14 55 -14 30 0 55 4 55
10 0 22 -63 37 -97 23z"/>
<path d="M3852 28 c4 -10 69 -14 282 -16 221 -2 277 0 274 10 -4 10 -69 14
-282 16 -221 2 -277 0 -274 -10z"/>
<path d="M5170 27 c-23 -10 -19 -12 39 -15 66 -3 86 3 61 18 -20 13 -69 11
-100 -3z"/>
<path d="M5393 33 c-50 -4 -66 -14 -44 -28 17 -10 172 7 168 19 -4 12 -43 15
-124 9z"/>
<path d="M5598 33 c-40 -10 -14 -23 47 -23 62 0 84 11 49 24 -17 7 -69 6 -96
-1z"/>
<path d="M5865 29 c-22 -4 -55 -5 -72 -2 -20 3 -33 1 -33 -5 0 -27 148 -22
158 6 4 13 4 13 -53 1z"/>
</g>
</svg>
